<svg width="93" height="32" viewBox="0 0 93 32" fill="none" xmlns="http://www.w3.org/2000/svg">
<path d="M11.5649 9.38703V13.2093L11.2027 12.9981C10.3815 12.4947 9.51861 12.0636 8.62357 11.7095C8.09598 11.5172 7.54018 11.4147 6.97903 11.4061C6.39221 11.4061 5.9696 11.4959 5.71846 11.6755C5.46731 11.8551 5.38037 12.1463 5.38037 12.5953C5.40854 12.8116 5.51309 13.0105 5.67499 13.1559C5.98966 13.4791 6.33962 13.7657 6.71822 14.0101L7.59482 14.6095C8.35405 15.1195 9.06033 15.7049 9.70302 16.3568C10.0907 16.7873 10.4115 17.2741 10.6545 17.8008C10.8992 18.3425 11.0228 18.9314 11.0167 19.5263C11.0292 20.4224 10.7898 21.304 10.3261 22.0696C9.85385 22.829 9.17621 23.4376 8.37242 23.8242C7.50522 24.2472 6.55195 24.4615 5.58805 24.4503C4.63292 24.4503 3.68174 24.3271 2.7578 24.0838C1.79514 23.8227 0.895992 23.3659 0.115915 22.7418L0 22.652L0.690658 18.9851L0.992519 19.172C1.7283 19.6586 2.50575 20.0785 3.31564 20.4266C3.94644 20.7033 4.62471 20.8541 5.31275 20.8707C5.71431 20.8924 6.11147 20.7779 6.44051 20.5455C6.562 20.4594 6.6607 20.3447 6.72804 20.2115C6.79538 20.0782 6.82931 19.9305 6.82689 19.7811C6.80349 19.4497 6.668 19.1362 6.44292 18.8929C6.06848 18.4629 5.64079 18.0828 5.17028 17.762C3.82035 16.7912 2.95824 16.0996 2.53563 15.6579C2.13666 15.2498 1.80997 14.7763 1.56968 14.2577C1.34666 13.7748 1.23128 13.2489 1.23159 12.7166C1.22233 11.8134 1.46493 10.9257 1.93191 10.1539C2.40212 9.39129 3.0813 8.78122 3.88797 8.39689C4.77032 7.97652 5.73702 7.76562 6.71339 7.78048C7.5533 7.77822 8.38707 7.92444 9.17658 8.21245C9.96763 8.50522 10.7286 8.87419 11.449 9.31423L11.5649 9.38703Z" fill="#6426EA"/>
<path d="M22.415 15.7501L28.9135 24.0596H23.7021L18.3097 16.7257L17.2858 24.0596H13.1515L16.484 0.301033H20.6038L18.5826 14.6459L24.161 8.1809H29.3988L22.415 15.7501Z" fill="#6426EA"/>
<path d="M35.9553 8.18091L33.7143 24.0596H29.58L31.7872 8.18091H35.9553Z" fill="#6426EA"/>
<path d="M36.5976 3.85875C36.5981 4.24451 36.4955 4.62333 36.3006 4.95567C36.1014 5.29698 35.8167 5.57981 35.4747 5.77593C35.1336 5.97755 34.7451 6.08395 34.3494 6.08414C33.9566 6.0846 33.571 5.97809 33.2337 5.77593C32.9009 5.57948 32.6246 5.29947 32.432 4.96336C32.2394 4.62726 32.137 4.24661 32.1349 3.85875C32.135 3.4674 32.2338 3.08246 32.4223 2.73998C32.6112 2.39651 32.888 2.10999 33.224 1.91001C33.5634 1.70391 33.9529 1.59639 34.3494 1.59938C34.7531 1.59664 35.1501 1.7031 35.4989 1.90759C35.8425 2.10435 36.1257 2.39232 36.3175 2.73998C36.5044 3.08275 36.6008 3.4679 36.5976 3.85875V3.85875Z" fill="#6426EA"/>
<path d="M52.4465 12.5225C52.4465 12.7239 52.4465 12.9156 52.4465 13.0952C52.4465 13.2748 52.4296 13.4714 52.4127 13.6752C52.3958 13.8791 52.3693 14.1096 52.3355 14.3693C52.3017 14.629 52.263 14.9396 52.2195 15.3158L50.9276 24.0523H46.8223L48.0297 15.2138C48.1166 14.5877 48.1746 14.1315 48.2036 13.8548C48.2326 13.5782 48.2422 13.2869 48.2422 12.9642C48.2621 12.5166 48.131 12.0754 47.8703 11.7119C47.7617 11.5646 47.6189 11.4462 47.4543 11.3671C47.2897 11.288 47.1084 11.2506 46.9261 11.2581C46.489 11.2581 45.9119 11.479 45.214 11.9134C44.3323 12.5095 43.5403 13.2295 42.8619 14.0514L41.466 24.0523H37.3221L39.5293 8.17363H43.6636L43.3738 10.2219C44.0299 9.60213 44.7599 9.06657 45.5472 8.62745C46.378 8.16037 47.3121 7.91005 48.264 7.8994C49.065 7.87731 49.8554 8.08707 50.5412 8.50368C51.1679 8.90337 51.6654 9.47757 51.9732 10.1563C52.3019 10.9006 52.4635 11.7084 52.4465 12.5225V12.5225Z" fill="#6426EA"/>
<path d="M60.9373 8.18091L58.6987 24.0596H54.5644L56.7692 8.18091H60.9373Z" fill="#6426EA"/>
<path d="M61.5797 3.85875C61.5793 4.24473 61.4759 4.62353 61.2802 4.95567C61.0798 5.29673 60.7951 5.57988 60.4536 5.77762C60.1121 5.97536 59.7255 6.08096 59.3314 6.08414C58.9378 6.08504 58.5513 5.97852 58.2133 5.77593C57.8759 5.57739 57.5968 5.29273 57.4043 4.95082C57.2149 4.61842 57.1158 4.2418 57.1169 3.85875C57.1159 3.46727 57.2149 3.08207 57.4043 2.73999C57.591 2.3973 57.8653 2.11082 58.1988 1.91002C58.539 1.70384 58.9293 1.59632 59.3266 1.59938C59.727 1.59827 60.1205 1.70467 60.4664 1.90759C60.8104 2.1047 61.0943 2.39253 61.2875 2.73999C61.4786 3.08161 61.5792 3.46684 61.5797 3.85875Z" fill="#6426EA"/>
<path d="M77.0929 0.832508L76.5326 4.59165L76.2356 4.44118C75.412 3.98695 74.496 3.72797 73.5575 3.68402C72.3839 3.68402 71.4952 4.06503 70.8407 4.84646C70.1863 5.6279 69.8265 6.71268 69.6792 8.18091H72.7074L72.2438 11.5979H69.1769L66.6509 30.6726H62.5456L65.0836 11.5979H62.3379L62.8209 8.18091H65.5618C65.8033 5.68857 66.576 3.69615 67.839 2.25705C69.1527 0.759704 70.9253 0.000110418 73.1107 0.000110418C73.743 -0.00143301 74.3736 0.0644601 74.9919 0.196683C75.6425 0.341661 76.2823 0.5314 76.9069 0.764558L77.0929 0.832508Z" fill="#6426EA"/>
<path d="M88.7254 8.12023L77.6532 31.9564L73.2726 32.0001L77.6024 22.6763L73.5551 8.27069L77.6894 8.22944L80.1695 17.6722L84.34 8.16391L88.7254 8.12023Z" fill="#6426EA"/>
<path d="M92.0072 21.742C92.0111 22.0861 91.9471 22.4275 91.8189 22.7466C91.6907 23.0658 91.5009 23.3562 91.2605 23.6012C91.02 23.8463 90.7337 24.041 90.4179 24.1742C90.1022 24.3075 89.7633 24.3765 89.4209 24.3775H89.3943C88.9474 24.3783 88.508 24.2621 88.1193 24.0404C87.7306 23.8187 87.406 23.4991 87.1775 23.1131C86.9361 22.7154 86.8083 22.2587 86.808 21.7929C86.8007 21.3279 86.9157 20.8691 87.1413 20.463C87.3592 20.0569 87.6864 19.7205 88.0855 19.4923C88.4732 19.2664 88.9124 19.1451 89.3605 19.1404H89.3895C89.7298 19.1347 90.0676 19.1985 90.3827 19.3278C90.6977 19.4571 90.9834 19.6493 91.2224 19.8927C91.4706 20.1318 91.6681 20.4189 91.803 20.7367C91.9379 21.0545 92.0074 21.3965 92.0072 21.742V21.742Z" fill="#6426EA"/>
</svg>
