<?xml version="1.0" standalone="no"?>
<!DOCTYPE svg PUBLIC "-//W3C//DTD SVG 20010904//EN"
 "http://www.w3.org/TR/2001/REC-SVG-20010904/DTD/svg10.dtd">
<svg version="1.0" xmlns="http://www.w3.org/2000/svg"
 width="50.000000pt" height="50.000000pt" viewBox="0 0 50.000000 50.000000"
 preserveAspectRatio="xMidYMid meet">

<g transform="translate(0.000000,50.000000) scale(0.100000,-0.100000)"
fill="#000000" stroke="none">
<path d="M159 451 c-59 -61 -81 -123 -83 -239 -1 -70 2 -87 13 -87 11 0 18 24
28 89 7 48 21 102 31 120 20 34 62 49 62 22 0 -14 16 -16 100 -16 109 0 107
-1 90 59 -8 29 -6 36 12 51 13 11 19 23 15 33 -5 14 -23 17 -114 17 l-107 0
-47 -49z"/>
<path d="M49 441 c-18 -19 -29 -40 -29 -58 0 -32 27 -76 41 -68 5 4 3 15 -6
28 -8 12 -15 31 -15 42 0 27 40 65 68 65 11 0 24 5 27 10 4 6 -7 10 -25 10
-22 0 -41 -9 -61 -29z"/>
<path d="M170 335 c-7 -9 -11 -18 -8 -20 3 -3 11 1 18 10 7 9 11 18 8 20 -3 3
-11 -1 -18 -10z"/>
<path d="M179 299 c-6 -12 -15 -35 -19 -50 -9 -29 -8 -29 34 -29 l43 0 10 50
10 50 -33 0 c-24 0 -37 -6 -45 -21z"/>
<path d="M277 313 c-3 -5 -8 -27 -12 -50 l-7 -43 52 0 52 0 -7 43 c-9 55 -11
57 -45 57 -16 0 -31 -3 -33 -7z"/>
<path d="M373 270 l10 -50 43 0 c42 0 43 0 34 29 -16 57 -29 71 -64 71 l-33 0
10 -50z"/>
<path d="M150 183 c1 -51 11 -63 54 -63 l42 0 -4 40 -4 40 -44 0 c-35 0 -44
-3 -44 -17z"/>
<path d="M262 163 c3 -38 3 -38 48 -38 45 0 45 0 48 38 l3 37 -51 0 -51 0 3
-37z"/>
<path d="M378 160 l-4 -40 42 0 c35 0 43 4 48 23 13 50 9 57 -38 57 l-44 0 -4
-40z"/>
<path d="M179 81 c14 -25 69 -71 86 -71 11 0 11 8 -2 45 -14 43 -17 45 -54 45
-36 0 -39 -2 -30 -19z"/>
<path d="M270 95 c0 -14 33 -85 40 -85 7 0 40 71 40 85 0 3 -18 5 -40 5 -22 0
-40 -2 -40 -5z"/>
<path d="M357 55 c-13 -37 -13 -45 -2 -45 17 0 72 46 86 71 9 17 6 19 -30 19
-37 0 -40 -2 -54 -45z"/>
</g>
</svg>
