<svg width="90" height="20" viewBox="0 0 90 20" fill="none" xmlns="http://www.w3.org/2000/svg">
<path d="M18.541 18.0154L21.2069 2.78036H25.4602L22.7944 18.0154H18.541Z" fill="white"/>
<path d="M38.2502 3.13058C37.4115 2.80954 36.0936 2.48849 34.4162 2.48849C30.1928 2.48849 27.2274 4.56069 27.2274 7.50846C27.1975 9.6974 29.3541 10.9232 30.9716 11.6529C32.619 12.4117 33.1881 12.8787 33.1881 13.5499C33.1881 14.5714 31.8702 15.0384 30.6421 15.0384C28.9348 15.0384 28.0362 14.8049 26.6284 14.2504L26.0593 14.0169L25.4602 17.4317C26.4487 17.8694 28.3058 18.2197 30.2228 18.2489C34.7157 18.2489 37.6212 16.2059 37.6512 13.0538C37.6811 11.3318 36.5429 9.98926 34.0867 8.90939C32.5891 8.20892 31.6905 7.74195 31.6905 7.0123C31.6905 6.37022 32.4693 5.69894 34.1167 5.69894C35.5245 5.66975 36.5129 5.96161 37.2917 6.28266L37.6811 6.45777L38.2502 3.13058Z" fill="white"/>
<path d="M49.1832 2.78036H45.8883C44.8699 2.78036 44.0911 3.04304 43.6418 4.03536L37.3217 17.9862H41.7847C41.7847 17.9862 42.5036 16.1183 42.6833 15.7097C43.1626 15.7097 47.5058 15.7097 48.1348 15.7097C48.2546 16.2351 48.644 17.9862 48.644 17.9862H52.5978L49.1832 2.78036ZM43.9413 12.616C44.3008 11.7404 45.6487 8.35487 45.6487 8.35487C45.6187 8.38405 46.0081 7.47929 46.2178 6.89557L46.5173 8.20894C46.5173 8.20894 47.3261 11.8572 47.5058 12.616H43.9413Z" fill="white"/>
<path d="M14.9766 2.78036L10.7832 13.1705L10.3339 11.0692C9.58504 8.61754 7.15883 5.99081 4.46304 4.67745L8.2671 18.0154H12.79L19.4995 2.78036H14.9766Z" fill="white"/>
<path d="M6.91919 2.78036H0.0599064L0 3.10141C5.36162 4.3564 8.8961 7.42092 10.3638 11.0692L8.86615 4.06454C8.59657 3.10141 7.84774 2.80955 6.91919 2.78036Z" fill="#F7A600"/>
<path d="M78.498 3.04303H69.9613V17.957H78.498V3.04303Z" fill="#EB621D"/>
<path d="M70.5005 10.4854C70.5005 7.45009 71.9682 4.76499 74.2147 3.01384C72.5672 1.75884 70.4705 0.970825 68.1941 0.970825C62.8025 0.970825 58.4593 5.20278 58.4593 10.4562C58.4593 15.7097 62.8025 19.9416 68.1941 19.9416C70.4705 19.9416 72.5373 19.1828 74.2147 17.8986C71.9682 16.235 70.5005 13.5207 70.5005 10.4854Z" fill="#E41522"/>
<path d="M90 10.4854C90 15.7389 85.6568 19.9708 80.2652 19.9708C77.9888 19.9708 75.922 19.212 74.2446 17.9278C76.5211 16.1767 77.9588 13.4916 77.9588 10.4562C77.9588 7.42089 76.4911 4.76498 74.2446 3.04301C75.8921 1.78802 77.9888 1 80.2652 1C85.6268 1 90 5.26114 90 10.4854Z" fill="#F59E1F"/>
</svg>
