<svg width="60" height="60" viewBox="0 0 60 60" fill="none" xmlns="http://www.w3.org/2000/svg">
<path d="M30 60C46.5685 60 60 46.5685 60 30C60 13.4315 46.5685 0 30 0C13.4315 0 0 13.4315 0 30C0 46.5685 13.4315 60 30 60Z" fill="url(#paint0_linear)"/>
<path d="M30 36.36L18.49 30.89L30 51L41.51 30.89L30 36.36Z" fill="white"/>
<path d="M40.25 26.81L30 9L19.73 26.83L30 21.96L40.25 26.81Z" fill="white"/>
<path d="M20.62 29.14L30 33.58L39.39 29.13L30 24.69L20.62 29.14Z" fill="white"/>
<defs>
<linearGradient id="paint0_linear" x1="30" y1="0" x2="30" y2="60" gradientUnits="userSpaceOnUse">
<stop stop-color="#4A819F"/>
<stop offset="1" stop-color="#034681"/>
</linearGradient>
</defs>
</svg>
