<svg width="81" height="23" viewBox="0 0 81 23" fill="none" xmlns="http://www.w3.org/2000/svg">
<path fill-rule="evenodd" clip-rule="evenodd" d="M21.8269 -7.1918e-06V0.0100365C21.8169 0.0100365 18.663 -7.24626e-06 17.822 3.02314C17.0511 5.79519 14.8784 13.4485 14.8183 13.6594H14.2176C14.2176 13.6594 11.9948 5.83537 11.2138 3.01309C10.3728 -0.010051 7.2089 -7.1918e-06 7.2089 -7.1918e-06H0V23H7.2089V9.34061H7.50927H7.80964L12.0148 23H17.021L21.2262 9.35065H21.8269V23H29.0358V-7.1918e-06H21.8269Z" fill="#4DB45E"/>
<path fill-rule="evenodd" clip-rule="evenodd" d="M48.1595 0C48.1595 0 46.0468 0.19083 45.0556 2.41048L39.9493 13.6594H39.3486V0H32.1397V23H38.9481C38.9481 23 41.1608 22.7991 42.152 20.5895L47.1582 9.34061H47.759V23H54.9679V0H48.1595Z" fill="#4DB45E"/>
<path fill-rule="evenodd" clip-rule="evenodd" d="M58.1718 10.4454V23H65.3807V15.6681H73.1904C76.5946 15.6681 79.4781 13.4887 80.5494 10.4454H58.1718Z" fill="#4DB45E"/>
<path fill-rule="evenodd" clip-rule="evenodd" d="M73.1904 0H57.1606C57.9616 4.37904 61.2356 7.89432 65.4708 9.0393C66.432 9.30044 67.4433 9.44105 68.4845 9.44105H80.8398C80.9499 8.91878 81 8.38646 81 7.83406C81 3.50524 77.5057 0 73.1904 0Z" fill="url(#paint0_linear)"/>
<defs>
<linearGradient id="paint0_linear" x1="57.1606" y1="4.72052" x2="81" y2="4.72052" gradientUnits="userSpaceOnUse">
<stop offset="0.3" stop-color="#00B4E6"/>
<stop offset="1" stop-color="#088CCB"/>
</linearGradient>
</defs>
</svg>
