<svg width="60" height="60" viewBox="0 0 60 60" fill="none" xmlns="http://www.w3.org/2000/svg">
<g clip-path="url(#clip0_708_22)">
<path d="M30 60C46.5686 60 60 46.5686 60 30C60 13.4314 46.5686 0 30 0C13.4314 0 0 13.4314 0 30C0 46.5686 13.4314 60 30 60Z" fill="#0098EA"/>
<path d="M40.2432 16.744H19.7556C15.9887 16.744 13.6011 20.8073 15.4963 24.0922L28.1404 46.0081C28.9655 47.4391 31.0333 47.4391 31.8584 46.0081L44.5051 24.0922C46.3977 20.8126 44.0101 16.744 40.2458 16.744H40.2432ZM28.1301 39.4358L25.3765 34.1065L18.7321 22.2229C18.2938 21.4623 18.8352 20.4876 19.7531 20.4876H28.1276V39.4384L28.1301 39.4358ZM41.2616 22.2204L34.6198 34.109L31.8661 39.4358V20.4851H40.2406C41.1585 20.4851 41.6999 21.4597 41.2616 22.2204Z" fill="white"/>
</g>
<defs>
<clipPath id="clip0_708_22">
<rect width="60" height="60" fill="white"/>
</clipPath>
</defs>
</svg>
