<svg width="60" height="60" viewBox="0 0 60 60" fill="none" xmlns="http://www.w3.org/2000/svg">
<path d="M30 60C46.5685 60 60 46.5685 60 30C60 13.4315 46.5685 0 30 0C13.4315 0 0 13.4315 0 30C0 46.5685 13.4315 60 30 60Z" fill="#FF9400"/>
<path d="M44.97 31.03C43.99 29.77 42.52 28.9 40.55 28.43C43.06 27.15 44.16 24.98 43.86 21.92C43.76 20.81 43.45 19.85 42.94 19.03C42.43 18.21 41.73 17.56 40.86 17.06C39.99 16.56 39.03 16.18 38.01 15.92C36.98 15.66 35.81 15.47 34.48 15.35V9H30.59V15.18C29.92 15.18 28.89 15.2 27.51 15.23V9H23.62V15.36C23.06 15.38 22.25 15.39 21.17 15.39L15.82 15.36V19.5H18.62C19.9 19.5 20.65 20.07 20.87 21.22V28.46C21.04 28.46 21.17 28.47 21.27 28.49H20.87V38.64C20.74 39.5 20.25 39.93 19.41 39.93H16.61L15.83 44.55H20.88C21.2 44.55 21.66 44.55 22.27 44.56C22.88 44.57 23.33 44.57 23.63 44.57V51H27.52V44.64C28.23 44.66 29.25 44.67 30.6 44.67V51H34.49V44.56C35.87 44.49 37.09 44.37 38.16 44.18C39.23 43.99 40.25 43.7 41.23 43.31C42.21 42.91 43.02 42.42 43.68 41.83C44.34 41.24 44.88 40.49 45.31 39.58C45.74 38.67 46.01 37.62 46.13 36.42C46.32 34.1 45.95 32.3 44.97 31.03ZM27.58 19.78C27.7 19.78 28.03 19.78 28.58 19.77C29.13 19.76 29.58 19.75 29.94 19.74C30.3 19.73 30.79 19.75 31.4 19.8C32.01 19.85 32.53 19.92 32.95 20C33.37 20.08 33.83 20.22 34.34 20.42C34.85 20.61 35.25 20.85 35.55 21.13C35.85 21.41 36.11 21.76 36.32 22.19C36.53 22.62 36.64 23.11 36.64 23.67C36.64 24.14 36.56 24.57 36.41 24.96C36.26 25.35 36.03 25.67 35.73 25.93C35.43 26.19 35.12 26.42 34.8 26.61C34.48 26.8 34.07 26.96 33.58 27.08C33.08 27.2 32.65 27.29 32.28 27.36C31.91 27.43 31.45 27.47 30.89 27.5C30.33 27.53 29.91 27.54 29.63 27.55C29.34 27.56 28.95 27.56 28.46 27.55C27.96 27.54 27.67 27.54 27.59 27.54L27.58 19.78ZM38.19 36.97C38.03 37.36 37.82 37.69 37.57 37.98C37.32 38.27 36.98 38.52 36.57 38.74C36.16 38.96 35.76 39.14 35.37 39.27C34.98 39.41 34.52 39.52 33.97 39.62C33.42 39.72 32.94 39.79 32.53 39.83C32.12 39.87 31.63 39.91 31.05 39.93C30.48 39.95 30.03 39.97 29.71 39.97C29.39 39.97 28.99 39.97 28.5 39.96C28.01 39.95 27.7 39.95 27.57 39.95V31.42C27.7 31.42 28.1 31.41 28.77 31.39C29.43 31.37 29.98 31.37 30.4 31.37C30.82 31.37 31.4 31.39 32.14 31.45C32.88 31.5 33.5 31.58 34.01 31.68C34.51 31.78 35.07 31.94 35.66 32.15C36.26 32.36 36.74 32.62 37.11 32.92C37.48 33.22 37.79 33.61 38.04 34.08C38.29 34.55 38.42 35.09 38.42 35.7C38.43 36.15 38.35 36.58 38.19 36.97Z" fill="white"/>
</svg>
