<svg width="61" height="35" viewBox="0 0 61 35" fill="none" xmlns="http://www.w3.org/2000/svg">
<path d="M12.5667 32.8524L14.3736 22.5265H17.2564L15.4495 32.8524H12.5667Z" fill="white"/>
<path d="M25.9251 22.7638C25.3567 22.5462 24.4634 22.3286 23.3265 22.3286C20.464 22.3286 18.4541 23.7331 18.4541 25.7311C18.4338 27.2147 19.8956 28.0455 20.9918 28.54C22.1084 29.0544 22.4942 29.3709 22.4942 29.8258C22.4942 30.5182 21.6009 30.8347 20.7685 30.8347C19.6113 30.8347 19.0023 30.6765 18.0481 30.3006L17.6624 30.1423L17.2563 32.4568C17.9263 32.7535 19.185 32.9909 20.4843 33.0107C23.5295 33.0107 25.4988 31.626 25.5191 29.4896C25.5394 28.3224 24.7679 27.4125 23.1032 26.6806C22.0881 26.2058 21.4791 25.8893 21.4791 25.3948C21.4791 24.9596 22.0069 24.5046 23.1235 24.5046C24.0777 24.4848 24.7476 24.6826 25.2755 24.9002L25.5394 25.0189L25.9251 22.7638Z" fill="white"/>
<path d="M33.3352 22.5265H31.102C30.4118 22.5265 29.8839 22.7045 29.5794 23.3771L25.2958 32.8326H28.3207C28.3207 32.8326 28.808 31.5666 28.9298 31.2897C29.2546 31.2897 32.1983 31.2897 32.6247 31.2897C32.7059 31.6457 32.9698 32.8326 32.9698 32.8326H35.6496L33.3352 22.5265ZM29.7824 29.1928C30.0261 28.5994 30.9396 26.3047 30.9396 26.3047C30.9193 26.3245 31.1832 25.7113 31.3254 25.3157L31.5284 26.2058C31.5284 26.2058 32.0765 28.6785 32.1983 29.1928H29.7824Z" fill="white"/>
<path d="M10.1508 22.5265L7.3086 29.5687L7.00408 28.1444C6.49654 26.4828 4.85211 24.7024 3.02496 23.8123L5.60327 32.8524H8.66881L13.2164 22.5265H10.1508Z" fill="white"/>
<path d="M4.68967 22.5265H0.0406032L0 22.7441C3.63399 23.5947 6.02958 25.6717 7.02436 28.1444L6.00928 23.3968C5.82656 22.7441 5.31902 22.5462 4.68967 22.5265Z" fill="#F7A600"/>
<path d="M53.2042 22.7045H47.4182V32.8128H53.2042V22.7045Z" fill="#EB621D"/>
<path d="M47.7836 27.7488C47.7836 25.6915 48.7784 23.8716 50.301 22.6847C49.1844 21.8341 47.7633 21.3 46.2204 21.3C42.5661 21.3 39.6224 24.1683 39.6224 27.729C39.6224 31.2897 42.5661 34.158 46.2204 34.158C47.7633 34.158 49.1641 33.6437 50.301 32.7733C48.7784 31.6457 47.7836 29.806 47.7836 27.7488Z" fill="#E41522"/>
<path d="M61 27.7488C61 31.3094 58.0563 34.1778 54.402 34.1778C52.8591 34.1778 51.4582 33.6634 50.3214 32.7931C51.8643 31.6062 52.8387 29.7863 52.8387 27.729C52.8387 25.6717 51.844 23.8716 50.3214 22.7045C51.4379 21.8539 52.8591 21.3198 54.402 21.3198C58.036 21.3198 61 24.2079 61 27.7488Z" fill="#F59E1F"/>
<path fill-rule="evenodd" clip-rule="evenodd" d="M19.5626 2.56314e-07V0.00588318C19.5567 0.00588318 17.7094 2.24416e-07 17.2167 1.77076C16.7652 3.39445 15.4925 7.87723 15.4574 8.00078H15.1055C15.1055 8.00078 13.8035 3.41798 13.3461 1.76488C12.8535 -0.00588272 11.0003 2.56314e-07 11.0003 2.56314e-07H6.77777V13.4719H11.0003V5.47112H11.1762H11.3521L13.8153 13.4719H16.7476L19.2107 5.477H19.5626V13.4719H23.7851V2.56314e-07H19.5626Z" fill="#4DB45E"/>
<path fill-rule="evenodd" clip-rule="evenodd" d="M34.9865 0C34.9865 0 33.7491 0.111775 33.1685 1.4119L30.1775 8.00077H29.8256V0H25.6031V13.4719H29.5911C29.5911 13.4719 30.8871 13.3542 31.4677 12.06L34.4 5.47112H34.7519V13.4719H38.9744V0H34.9865Z" fill="#4DB45E"/>
<path fill-rule="evenodd" clip-rule="evenodd" d="M40.851 6.11829V13.4719H45.0735V9.17741H49.6478C51.6418 9.17741 53.3308 7.90081 53.9583 6.11829H40.851Z" fill="#4DB45E"/>
<path fill-rule="evenodd" clip-rule="evenodd" d="M49.6479 0H40.2587C40.7278 2.56495 42.6456 4.62398 45.1263 5.29463C45.6893 5.44759 46.2816 5.52995 46.8915 5.52995H54.1284C54.1929 5.22403 54.2222 4.91224 54.2222 4.58868C54.2222 2.05314 52.1755 0 49.6479 0Z" fill="url(#paint0_linear_738_23)"/>
<defs>
<linearGradient id="paint0_linear_738_23" x1="40.2587" y1="2.76497" x2="54.2222" y2="2.76497" gradientUnits="userSpaceOnUse">
<stop offset="0.3" stop-color="#00B4E6"/>
<stop offset="1" stop-color="#088CCB"/>
</linearGradient>
</defs>
</svg>
