<svg width="66" height="24" viewBox="0 0 66 24" fill="none" xmlns="http://www.w3.org/2000/svg">
<g clip-path="url(#clip0)">
<path d="M9.30527 10.2175V13.2919H3.645V24H0V14.816L3.6231 10.2175H9.30527Z" fill="url(#paint0_linear)"/>
<path d="M19.1363 0L17.0553 3.05265H5.05131C4.28463 3.05265 3.66691 3.66492 3.66691 4.42482V6.64375L0 10.7733V4.46825C0 2.00181 2.01965 0 4.50807 0H19.1363Z" fill="url(#paint1_linear)"/>
<path d="M26.6804 24H22.6849L15.4694 13.7869V24H12.4114V13.8477L22.2775 0H26.2116L18.0629 11.4941L26.6804 24Z" fill="url(#paint2_linear)"/>
<path d="M27.8462 12.6827L25.7823 4.62891H26.8914L27.8559 8.70597C28.097 9.7097 28.314 10.7134 28.4586 11.4925H28.4827C28.6178 10.6895 28.8685 9.7336 29.1482 8.69641L30.2332 4.63369H31.3327L32.3213 8.72031C32.5527 9.67625 32.7697 10.6322 32.8903 11.483H32.9144C33.0832 10.5987 33.3147 9.70014 33.5654 8.69641L34.6408 4.63369H35.7162L33.4111 12.6874H32.3116L31.2845 8.49089C31.0289 7.46326 30.8601 6.67461 30.754 5.86206H30.7251C30.566 6.75108 30.3538 7.62576 30.0982 8.49089L28.9409 12.6874H27.8462V12.6827Z" fill="white"/>
<path d="M37.3461 10.1494L36.5022 12.6827H35.4172L38.1803 4.62891H39.4486L42.2214 12.6827H41.093L40.225 10.1494H37.3461V10.1494ZM40.008 9.33689L39.2123 7.01875C39.029 6.49298 38.9085 6.01501 38.7879 5.5466H38.7638C38.6433 6.02457 38.5082 6.51688 38.3539 7.00441L37.5583 9.33689H40.008V9.33689Z" fill="white"/>
<path d="M43.4077 4.62891H44.4589V11.8128H47.931V12.6874H43.4077V4.62891Z" fill="white"/>
<path d="M49.0979 4.62891H50.1492V11.8128H53.6212V12.6874H49.0979V4.62891Z" fill="white"/>
<path d="M58.9981 8.90672H55.8395V11.8128H59.3597V12.6874H54.7882V4.62891H59.1765V5.50359H55.8347V8.05116H58.9932L58.9981 8.90672Z" fill="white"/>
<path d="M62.4556 5.51315H59.9818V4.62891H66V5.51315H63.5165V12.6827H62.4556V5.51315Z" fill="white"/>
<path d="M26.5876 14.7284V15.9328H26.7082L27.7594 14.7284H28.3767L27.1566 15.9854C27.6099 16.0332 27.88 16.3296 28.1018 16.8266C28.1789 17.0083 28.2754 17.2807 28.4008 17.5054H27.8703C27.7691 17.3237 27.6823 17.1325 27.6099 16.9366C27.417 16.4873 27.1566 16.2818 26.684 16.2818H26.5876V17.5054H26.0813V14.7284H26.5876Z" fill="white"/>
<path d="M31.352 16.0906C31.352 17.1182 30.6335 17.5627 29.9584 17.5627C29.2013 17.5627 28.6178 17.013 28.6178 16.1336C28.6178 15.2063 29.2302 14.6614 30.0066 14.6614C30.8119 14.6662 31.352 15.2446 31.352 16.0906ZM29.1338 16.124C29.1338 16.731 29.4858 17.1899 29.9825 17.1899C30.4695 17.1899 30.8312 16.7358 30.8312 16.1097C30.8312 15.6413 30.5949 15.0438 29.9921 15.0438C29.3893 15.0438 29.1338 15.5935 29.1338 16.124Z" fill="white"/>
<path d="M32.4804 14.7284V17.1086H33.4593V14.7284H33.956V17.1086H34.9349V14.7284H35.4365V17.5054H31.9837V14.7284H32.4804Z" fill="white"/>
<path d="M36.5504 16.2053C36.56 16.8888 37.0037 17.1708 37.51 17.1708C37.8765 17.1708 38.0935 17.1086 38.2864 17.0274L38.3732 17.3906C38.1948 17.4719 37.8862 17.5627 37.4425 17.5627C36.5793 17.5627 36.0634 16.9987 36.0634 16.1623C36.0634 15.3258 36.56 14.6662 37.375 14.6662C38.2912 14.6662 38.5324 15.4644 38.5324 15.9711C38.5324 16.0476 38.5275 16.1288 38.5131 16.2053H36.5504ZM38.0453 15.8468C38.0501 15.5266 37.9103 15.0247 37.3413 15.0247C36.8253 15.0247 36.5986 15.4931 36.56 15.8468H38.0453Z" fill="white"/>
<path d="M41.2955 14.7284V17.5054H40.794V15.1251H39.8344V15.8468C39.8344 16.6259 39.7572 17.1469 39.3955 17.3859C39.2557 17.4958 39.1014 17.5579 38.841 17.5579L38.7879 17.1612C38.8892 17.1469 38.9856 17.1086 39.0676 17.0465C39.328 16.8553 39.357 16.4682 39.357 15.8468V14.7284H41.2955V14.7284Z" fill="white"/>
<path d="M42.4143 16.2053C42.4239 16.8888 42.8676 17.1708 43.3739 17.1708C43.7404 17.1708 43.9574 17.1086 44.1503 17.0274L44.2371 17.3906C44.0587 17.4719 43.75 17.5627 43.3064 17.5627C42.4432 17.5627 41.9272 16.9987 41.9272 16.1623C41.9272 15.3258 42.4239 14.6662 43.2389 14.6662C44.1551 14.6662 44.3962 15.4644 44.3962 15.9711C44.3962 16.0476 44.3914 16.1288 44.3769 16.2053H42.4143ZM43.9092 15.8468C43.914 15.5266 43.7742 15.0247 43.2051 15.0247C42.6891 15.0247 42.4625 15.4931 42.4239 15.8468H43.9092Z" fill="white"/>
<path d="M45.5295 14.7284V15.9328H45.65L46.7013 14.7284H47.3185L46.0985 15.9854C46.547 16.0332 46.8218 16.3296 47.0437 16.8266C47.1208 17.0083 47.2173 17.2807 47.3426 17.5054H46.8122C46.7109 17.3237 46.6241 17.1325 46.5518 16.9366C46.3589 16.4873 46.1033 16.2818 45.6259 16.2818H45.5295V17.5054H45.028V14.7284H45.5295Z" fill="white"/>
</g>
<defs>
<linearGradient id="paint0_linear" x1="-4.48667" y1="8.99956" x2="19.1234" y2="30.3192" gradientUnits="userSpaceOnUse">
<stop stop-color="#1576FF"/>
<stop offset="1" stop-color="#601CFF"/>
</linearGradient>
<linearGradient id="paint1_linear" x1="3.57558" y1="0.0714357" x2="27.1853" y2="21.3911" gradientUnits="userSpaceOnUse">
<stop stop-color="#1576FF"/>
<stop offset="1" stop-color="#601CFF"/>
</linearGradient>
<linearGradient id="paint2_linear" x1="4.5935" y1="-1.05606" x2="28.2036" y2="20.2636" gradientUnits="userSpaceOnUse">
<stop stop-color="#1576FF"/>
<stop offset="1" stop-color="#601CFF"/>
</linearGradient>
<clipPath id="clip0">
<rect width="66" height="24" fill="white"/>
</clipPath>
</defs>
</svg>
