<svg width="23" height="14" viewBox="0 0 23 14" fill="none" xmlns="http://www.w3.org/2000/svg">
<g clip-path="url(#clip0_601_2)">
<path d="M0.5 0H23V14H0.5V0Z" fill="#00ABC2"/>
<path d="M12.6668 7.76371C13.7443 7.76371 14.6178 6.92035 14.6178 5.88001C14.6178 4.83967 13.7443 3.99631 12.6668 3.99631C11.5894 3.99631 10.7159 4.83967 10.7159 5.88001C10.7159 6.92035 11.5894 7.76371 12.6668 7.76371Z" fill="#FFEC2D"/>
<path d="M12.6669 3.73937C12.7829 3.73797 12.8264 3.66797 12.8264 3.58397C12.8264 3.47197 12.6669 2.93857 12.6669 2.93857C12.6669 2.93857 12.5074 3.47197 12.5074 3.58397C12.5074 3.66797 12.5509 3.73937 12.6669 3.73937Z" fill="#FFEC2D"/>
<path d="M14.8839 5.87998C14.8853 5.99198 14.9578 6.03398 15.0448 6.03398C15.1608 6.03398 15.7133 5.87998 15.7133 5.87998C15.7133 5.87998 15.1608 5.72598 15.0448 5.72598C14.9578 5.72598 14.8839 5.76798 14.8839 5.87998Z" fill="#FFEC2D"/>
<path d="M12.6669 8.02057C12.5509 8.02197 12.5074 8.09197 12.5074 8.17597C12.5074 8.28797 12.6669 8.82137 12.6669 8.82137C12.6669 8.82137 12.8264 8.28797 12.8264 8.17597C12.8264 8.09197 12.7829 8.02057 12.6669 8.02057Z" fill="#FFEC2D"/>
<path d="M10.4498 5.87997C10.4483 5.76797 10.3758 5.72597 10.2888 5.72597C10.1728 5.72597 9.6204 5.87997 9.6204 5.87997C9.6204 5.87997 10.1728 6.03397 10.2888 6.03397C10.3758 6.03397 10.4498 5.99197 10.4498 5.87997Z" fill="#FFEC2D"/>
<path d="M13.5134 3.90357C13.6197 3.94423 13.6875 3.89507 13.7212 3.8172C13.7661 3.71338 13.8346 3.16123 13.8346 3.16123C13.8346 3.16123 13.4752 3.59801 13.4302 3.70183C13.3966 3.7797 13.4076 3.86162 13.5134 3.90357Z" fill="#FFEC2D"/>
<path d="M14.7165 6.70097C14.6724 6.8063 14.7222 6.87207 14.8023 6.90383C14.9091 6.94618 15.4801 7.00376 15.4801 7.00376C15.4801 7.00376 15.0338 6.65797 14.927 6.61562C14.8469 6.58386 14.7618 6.59616 14.7165 6.70097Z" fill="#FFEC2D"/>
<path d="M11.8203 7.85638C11.714 7.81572 11.6462 7.86488 11.6125 7.94275C11.5676 8.04657 11.4991 8.59872 11.4991 8.59872C11.4991 8.59872 11.8585 8.16194 11.9035 8.05812C11.9371 7.98025 11.9261 7.89833 11.8203 7.85638Z" fill="#FFEC2D"/>
<path d="M10.6172 5.05895C10.6613 4.95362 10.6115 4.88785 10.5314 4.85608C10.4246 4.81374 9.85362 4.75616 9.85362 4.75616C9.85362 4.75616 10.2999 5.10195 10.4067 5.1443C10.4868 5.17606 10.5719 5.16376 10.6172 5.05895Z" fill="#FFEC2D"/>
<path d="M14.2345 4.36634C14.3176 4.44454 14.3996 4.42475 14.4611 4.36535C14.5432 4.28615 14.821 3.80009 14.821 3.80009C14.821 3.80009 14.3176 4.06836 14.2356 4.14756C14.174 4.20696 14.1525 4.28714 14.2345 4.36634Z" fill="#FFEC2D"/>
<path d="M14.2345 7.39363C14.1535 7.47381 14.174 7.55301 14.2356 7.6124C14.3176 7.6916 14.821 7.95988 14.821 7.95988C14.821 7.95988 14.5432 7.47381 14.4611 7.39462C14.3996 7.33522 14.3166 7.31443 14.2345 7.39363Z" fill="#FFEC2D"/>
<path d="M11.0992 7.39361C11.0161 7.3154 10.9341 7.3352 10.8726 7.3946C10.7905 7.4738 10.5127 7.95986 10.5127 7.95986C10.5127 7.95986 11.0161 7.69159 11.0981 7.61239C11.1596 7.55299 11.1812 7.47281 11.0992 7.39361Z" fill="#FFEC2D"/>
<path d="M11.0992 4.36635C11.1802 4.28617 11.1596 4.20697 11.0981 4.14757C11.0161 4.06838 10.5127 3.8001 10.5127 3.8001C10.5127 3.8001 10.7905 4.28617 10.8726 4.36536C10.9341 4.42476 11.0171 4.44555 11.0992 4.36635Z" fill="#FFEC2D"/>
<path d="M14.7165 5.05896C14.7631 5.16324 14.8469 5.17607 14.927 5.14431C15.0338 5.10196 15.4801 4.75617 15.4801 4.75617C15.4801 4.75617 14.9091 4.81374 14.8023 4.85609C14.7222 4.88785 14.6711 4.95415 14.7165 5.05896Z" fill="#FFEC2D"/>
<path d="M13.5134 7.85637C13.4081 7.89962 13.3966 7.98024 13.4302 8.05811C13.4752 8.16194 13.8346 8.59871 13.8346 8.59871C13.8346 8.59871 13.7661 8.04657 13.7212 7.94274C13.6875 7.86488 13.6192 7.81442 13.5134 7.85637Z" fill="#FFEC2D"/>
<path d="M10.6172 6.70096C10.5706 6.59668 10.4868 6.58385 10.4067 6.61561C10.2999 6.65796 9.85361 7.00375 9.85361 7.00375C9.85361 7.00375 10.4246 6.94617 10.5314 6.90383C10.6115 6.87206 10.6626 6.80576 10.6172 6.70096Z" fill="#FFEC2D"/>
<path d="M11.8203 3.90356C11.9255 3.86031 11.9371 3.77969 11.9034 3.70182C11.8585 3.598 11.4991 3.16122 11.4991 3.16122C11.4991 3.16122 11.5676 3.71336 11.6125 3.81719C11.6462 3.89506 11.7145 3.94551 11.8203 3.90356Z" fill="#FFEC2D"/>
<path d="M13.0965 3.78198C13.2086 3.80141 13.2651 3.74031 13.2827 3.65762C13.3061 3.54737 13.264 2.9937 13.264 2.9937C13.264 2.9937 12.9988 3.49014 12.9754 3.60039C12.9579 3.68308 12.9848 3.76117 13.0965 3.78198Z" fill="#FFEC2D"/>
<path d="M14.8428 6.3003C14.8205 6.41235 14.8824 6.46747 14.9674 6.48329C15.0808 6.50439 15.6532 6.45117 15.6532 6.45117C15.6532 6.45117 15.1461 6.19696 15.0328 6.17586C14.9478 6.16003 14.8666 6.1885 14.8428 6.3003Z" fill="#FFEC2D"/>
<path d="M12.2371 7.97803C12.1251 7.9586 12.0686 8.0197 12.051 8.10239C12.0276 8.21264 12.0697 8.76631 12.0697 8.76631C12.0697 8.76631 12.3348 8.26987 12.3583 8.15962C12.3758 8.07693 12.3489 7.99884 12.2371 7.97803Z" fill="#FFEC2D"/>
<path d="M10.4908 5.45971C10.5132 5.34765 10.4513 5.29254 10.3663 5.27672C10.2529 5.25562 9.68048 5.30884 9.68048 5.30884C9.68048 5.30884 10.1876 5.56305 10.3009 5.58415C10.3859 5.59998 10.4671 5.57151 10.4908 5.45971Z" fill="#FFEC2D"/>
<path d="M13.8965 4.10176C13.9923 4.16165 14.0686 4.12606 14.1173 4.05588C14.1824 3.9623 14.3614 3.43271 14.3614 3.43271C14.3614 3.43271 13.9212 3.7944 13.8562 3.88797C13.8074 3.95816 13.8016 4.0407 13.8965 4.10176Z" fill="#FFEC2D"/>
<path d="M14.512 7.07119C14.4475 7.1665 14.4828 7.2405 14.5548 7.28676C14.6508 7.34844 15.1982 7.51222 15.1982 7.51222C15.1982 7.51222 14.8314 7.08847 14.7354 7.02679C14.6635 6.98053 14.5777 6.97666 14.512 7.07119Z" fill="#FFEC2D"/>
<path d="M11.4371 7.65823C11.3413 7.59835 11.2651 7.63394 11.2163 7.70412C11.1513 7.79769 10.9723 8.32729 10.9723 8.32729C10.9723 8.32729 11.4125 7.96559 11.4775 7.87202C11.5263 7.80184 11.5321 7.71929 11.4371 7.65823Z" fill="#FFEC2D"/>
<path d="M10.8217 4.68879C10.8862 4.59348 10.8509 4.51948 10.7789 4.47322C10.6829 4.41154 10.1355 4.24776 10.1355 4.24776C10.1355 4.24776 10.5023 4.67151 10.5982 4.73319C10.6702 4.77945 10.756 4.78332 10.8217 4.68879Z" fill="#FFEC2D"/>
<path d="M14.5102 4.69081C14.5758 4.78311 14.6602 4.77911 14.7326 4.73243C14.829 4.67019 15.2 4.24578 15.2 4.24578C15.2 4.24578 14.652 4.41422 14.5555 4.47647C14.4831 4.52315 14.4458 4.59773 14.5102 4.69081Z" fill="#FFEC2D"/>
<path d="M13.8987 7.6599C13.803 7.72332 13.807 7.80487 13.8553 7.8747C13.9197 7.96781 14.3593 8.32563 14.3593 8.32563C14.3593 8.32563 14.1852 7.79659 14.1208 7.70348C14.0725 7.63364 13.9952 7.59763 13.8987 7.6599Z" fill="#FFEC2D"/>
<path d="M10.8235 7.0692C10.7579 6.9769 10.6735 6.9809 10.6011 7.02758C10.5047 7.08982 10.1337 7.51423 10.1337 7.51423C10.1337 7.51423 10.6817 7.34579 10.7782 7.28354C10.8505 7.23686 10.8879 7.16228 10.8235 7.0692Z" fill="#FFEC2D"/>
<path d="M11.435 4.10011C11.5307 4.03669 11.5267 3.95514 11.4784 3.88531C11.4139 3.7922 10.9744 3.43438 10.9744 3.43438C10.9744 3.43438 11.1485 3.96342 11.2129 4.05653C11.2612 4.12637 11.3385 4.16238 11.435 4.10011Z" fill="#FFEC2D"/>
<path d="M14.8414 5.46219C14.8654 5.57191 14.945 5.59954 15.0304 5.58319C15.1441 5.5614 15.6547 5.30636 15.6547 5.30636C15.6547 5.30636 15.0818 5.25892 14.968 5.28071C14.8827 5.29706 14.8187 5.3522 14.8414 5.46219Z" fill="#FFEC2D"/>
<path d="M13.0993 7.97935C12.9859 8.0025 12.9574 8.07934 12.9744 8.16175C12.997 8.27162 13.2613 8.76498 13.2613 8.76498C13.2613 8.76498 13.3097 8.21175 13.287 8.10187C13.27 8.01947 13.213 7.95758 13.0993 7.97935Z" fill="#FFEC2D"/>
<path d="M10.4923 6.29782C10.4682 6.1881 10.3886 6.16047 10.3033 6.17682C10.1896 6.19861 9.67899 6.45365 9.67899 6.45365C9.67899 6.45365 10.2519 6.50109 10.3657 6.4793C10.451 6.46295 10.515 6.40781 10.4923 6.29782Z" fill="#FFEC2D"/>
<path d="M12.2344 3.78062C12.3478 3.75748 12.3763 3.68064 12.3593 3.59823C12.3367 3.48835 12.0724 2.995 12.0724 2.995C12.0724 2.995 12.024 3.54823 12.0466 3.65811C12.0636 3.74051 12.1207 3.8024 12.2344 3.78062Z" fill="#FFEC2D"/>
<path d="M12.3188 9.96054C12.2666 9.96334 12.2158 9.96986 12.166 9.98526C12.0979 9.99414 12.0326 10.017 11.965 10.0277L11.9379 10.0319L11.8925 10.0361C11.8954 10.0483 11.8973 10.0604 11.8973 10.0725C11.8973 10.0851 11.8959 10.0973 11.8925 10.1075C11.8896 10.1173 11.8804 10.1295 11.8731 10.1369C11.8635 10.1472 11.8533 10.1561 11.8412 10.1617C11.8296 10.1673 11.8166 10.1696 11.8035 10.1705C11.7905 10.171 11.777 10.1705 11.7644 10.1659C11.7513 10.1617 11.7393 10.1537 11.7281 10.1444C11.7148 10.1476 11.7012 10.1499 11.6875 10.1514C11.674 10.1528 11.6614 10.1528 11.6494 10.1514C11.6358 10.1477 11.6218 10.1435 11.6088 10.1383C11.5956 10.1331 11.583 10.1267 11.5711 10.1192C11.5218 10.1472 11.4667 10.1738 11.4367 10.2228C11.4198 10.2452 11.4164 10.2709 11.4125 10.2975C11.4101 10.3301 11.4188 10.3647 11.4333 10.395C11.4386 10.4039 11.443 10.3628 11.4594 10.3572C11.487 10.3353 11.5213 10.3194 11.5561 10.3105C11.5856 10.2961 11.5817 10.3115 11.5696 10.3339C11.5667 10.3455 11.5503 10.3899 11.5725 10.3675C11.6706 10.3255 11.7794 10.3171 11.8852 10.3091C12.0389 10.2937 12.1931 10.2905 12.3473 10.2886L12.7823 10.2975C12.8514 10.2993 12.921 10.3143 12.9892 10.3031C13.0056 10.2989 13.0312 10.2979 13.0409 10.2886C13.0099 10.2713 12.9737 10.2709 12.9394 10.2667H12.6629C12.5861 10.2592 12.5058 10.2583 12.4333 10.2303C12.414 10.2228 12.3961 10.2051 12.3777 10.2242C12.3502 10.2335 12.3207 10.2401 12.2917 10.2419C12.241 10.2457 12.1902 10.2354 12.1433 10.2172C12.1772 10.1719 12.2178 10.1323 12.255 10.0903C12.225 10.0856 12.196 10.0795 12.166 10.0725C12.2187 10.0375 12.2675 9.99786 12.3188 9.96054Z" fill="#FFEC2D"/>
<path d="M14.5769 10.4441C14.4718 10.505 14.3917 10.3971 14.3039 10.3647C14.2411 10.3976 14.2353 10.5076 14.1767 10.5597C14.1066 10.6367 14.0207 10.5382 14.0271 10.4622C13.9432 10.5304 13.9008 10.6851 13.7652 10.6644C13.701 10.6138 13.6533 10.5076 13.6042 10.6285C13.5642 10.6876 13.4576 10.7718 13.4024 10.6825C13.3853 10.6037 13.3444 10.511 13.3 10.6362C13.2695 10.7247 13.1717 10.7899 13.077 10.7511C13.0252 10.7102 13.1185 10.5589 13.0526 10.5697C12.954 10.6326 12.8967 10.7889 12.7591 10.7764C12.7056 10.7185 12.7915 10.6204 12.7329 10.5561C12.6637 10.6418 12.587 10.7673 12.4673 10.7764C12.4095 10.7311 12.4696 10.6014 12.4327 10.5822C12.3099 10.6533 12.1804 10.78 12.0259 10.7403C12.0861 10.5181 12.3376 10.4401 12.549 10.4228C12.9128 10.3796 13.2955 10.459 13.6456 10.3322C13.7021 10.299 13.8391 10.2518 13.7903 10.1748C13.7471 10.1139 13.9028 10.1377 13.9177 10.0666C13.9085 9.97663 13.9892 9.98902 14.068 9.98113C14.4214 9.96641 14.7706 10.0383 15.123 10.0505C15.1496 10.2163 14.9591 10.3327 14.8058 10.2815C14.7325 10.293 14.6227 10.1189 14.6442 10.2455C14.6295 10.312 14.6398 10.3998 14.5769 10.4442M11.5696 10.1047C11.6514 10.177 11.7088 10.0911 11.7853 10.0597C12.0418 9.97447 12.2656 9.82559 12.4863 9.67684C12.62 9.57002 12.7359 9.43149 12.9155 9.39684C13.2657 9.2946 13.638 9.30701 13.9896 9.21265C14.2574 8.85873 14.7121 8.73246 15.093 8.52903C15.1786 8.50336 15.2116 8.43539 15.2389 8.36035C15.3843 8.13873 15.5824 7.94236 15.8167 7.80821C15.9275 7.74973 16.0598 7.71606 16.1852 7.7428C16.1763 7.8871 16.0905 8.01499 15.987 8.11478C16.0717 8.11299 16.1445 8.06131 16.2301 8.06423C16.2595 8.21232 16.0938 8.28982 16.0057 8.38203C16.0548 8.39304 16.2428 8.40678 16.1403 8.45425C16.0098 8.54175 15.8606 8.60183 15.7401 8.70344C15.8513 8.72273 15.864 8.74555 15.7509 8.78438C15.6897 8.82445 15.572 8.83845 15.5606 8.9165C15.6446 8.96636 15.5219 9.01586 15.4746 9.03207C15.384 9.05243 15.289 9.09038 15.4092 9.15677C15.3637 9.2231 15.2662 9.23726 15.1865 9.23069C15.2107 9.30587 15.2457 9.39 15.1446 9.42316C14.9181 9.5885 14.6522 9.70879 14.3674 9.7363C14.7232 9.76271 15.0896 9.69895 15.3936 9.51215C15.4337 9.46633 15.6442 9.41709 15.5265 9.37856C15.4711 9.3563 15.3522 9.33156 15.3442 9.29077C15.5089 9.19268 15.7163 9.22757 15.8935 9.1693C15.8981 9.11393 15.7587 9.12933 15.7068 9.11673C15.5829 9.10693 15.5902 9.07641 15.7096 9.0651C15.8607 9.02646 16.0319 9.01886 16.159 8.92373C16.0555 8.87743 15.9253 8.91818 15.8149 8.88038C16.0021 8.80128 16.223 8.79335 16.3909 8.67453C16.4675 8.59235 16.2929 8.61802 16.2421 8.62003C16.1384 8.63746 16.0905 8.58953 16.2083 8.54794C16.4094 8.40476 16.664 8.31176 16.8053 8.10418C16.8388 8.05772 16.8841 7.91772 16.7773 7.96807C16.637 8.01314 16.5135 8.16549 16.3535 8.11836C16.6687 7.88255 16.9685 7.61408 17.1839 7.28774C17.1951 7.19362 17.042 7.18344 17.0022 7.25734C16.7997 7.44569 16.6165 7.66803 16.3573 7.78612C16.6055 7.55477 16.8108 7.28083 16.9899 6.99691C17.0283 6.91246 17.1314 6.8109 17.0754 6.71715C16.9852 6.645 16.8723 6.71104 16.8253 6.79737C16.668 6.99575 16.5485 7.22729 16.3461 7.38887C16.5233 7.06237 16.7067 6.71481 16.7112 6.33822C16.7106 6.26069 16.6945 6.14651 16.5855 6.16098C16.499 6.17595 16.5195 6.30087 16.4839 6.36405C16.4054 6.62133 16.3686 6.89996 16.2077 7.12523C16.2439 6.91617 16.3072 6.69823 16.2586 6.48711C16.2359 6.39277 16.0781 6.43335 16.0984 6.52673C15.9099 7.44877 15.2691 8.25517 14.431 8.72165C14.0473 8.93127 13.6187 9.06642 13.1827 9.12768C13.0653 9.15247 12.9385 9.13793 12.8264 9.17654C12.5547 9.37768 12.3902 9.71424 12.0462 9.81963C11.8921 9.89361 11.691 9.90861 11.5808 10.0469C11.5713 10.0646 11.5692 10.0851 11.5696 10.1047Z" fill="#FFEC2D"/>
<path d="M12.5991 9.16931C12.5484 9.25827 12.5185 9.36053 12.4532 9.44017C12.2569 9.26768 11.9723 9.27338 11.7232 9.2619C11.5176 9.2513 11.2941 9.23299 11.135 9.09143C10.9677 8.9591 10.8311 8.7873 10.6442 8.67993C10.4735 8.63513 10.3015 8.57907 10.1643 8.46614C9.87112 8.23539 9.70321 7.89302 9.41672 7.65507C9.36209 7.60316 9.29768 7.56294 9.23649 7.5189C9.17835 7.53257 9.20467 7.65373 9.13352 7.59198C9.0948 7.56538 8.99797 7.56279 8.98924 7.59994C9.07684 7.71138 9.16452 7.83863 9.17665 7.98116C9.11691 7.98707 9.0107 7.96898 8.98109 7.99046C9.06042 8.10526 9.16211 8.20708 9.27765 8.28814C9.22223 8.29674 9.11303 8.29206 9.09179 8.31362C9.20647 8.40386 9.32944 8.4961 9.47962 8.51928C9.51036 8.5584 9.43467 8.63394 9.49832 8.66734C9.53522 8.6819 9.65701 8.70626 9.57313 8.74679C9.51556 8.78424 9.53692 8.87153 9.61054 8.86957C9.65708 8.89253 9.76158 8.89815 9.76976 8.93789C9.72851 8.97842 9.60014 9.02649 9.7094 9.06445C9.81146 9.11911 9.92787 9.1546 10.0444 9.15849C9.98593 9.20601 9.91386 9.23297 9.85366 9.27767C10.1226 9.42995 10.4208 9.53009 10.7154 9.62654C10.8327 9.66438 10.9514 9.69966 11.073 9.72188C10.7197 9.70218 10.3782 9.60119 10.0563 9.46295C9.88955 9.39232 9.72162 9.32407 9.55068 9.26324C9.62563 9.22558 9.71233 9.21638 9.79006 9.18379C9.62871 9.15257 9.45243 9.14235 9.31059 9.05671C9.33234 9.01925 9.41474 9.01748 9.46032 8.99842C9.54603 8.97859 9.5992 8.95454 9.47834 8.94734C9.35647 8.91541 9.21669 8.92975 9.10929 8.85875C9.1162 8.81619 9.22861 8.83103 9.27438 8.81265C9.33203 8.80309 9.39612 8.79508 9.44219 8.75763C9.25378 8.68221 9.00734 8.73565 8.85976 8.575C8.82572 8.51379 8.96545 8.5631 9.00523 8.55289C9.10634 8.55289 9.21501 8.58392 9.31129 8.54456C9.03674 8.42818 8.74267 8.31923 8.53329 8.10397C8.51004 8.06936 8.44039 7.97482 8.49659 7.96313C8.65955 7.98395 8.77751 8.15567 8.95183 8.12895C8.97499 8.0988 8.85056 8.04941 8.8195 8.00633C8.56535 7.79576 8.31867 7.56724 8.14054 7.29141C8.12829 7.19929 8.27825 7.1855 8.31773 7.25663C8.5121 7.43739 8.68768 7.64831 8.92978 7.77171C9.01567 7.81193 8.88045 7.72411 8.86244 7.69226C8.63875 7.44146 8.4258 7.17658 8.26946 6.88121C8.24148 6.82798 8.1951 6.73161 8.27883 6.70327C8.36254 6.66278 8.44559 6.71794 8.48803 6.78737C8.65249 6.98764 8.77351 7.22567 8.97838 7.39252C8.80384 7.06549 8.61749 6.72125 8.61298 6.34493C8.61708 6.27199 8.62194 6.16164 8.7244 6.16463C8.81043 6.15203 8.79684 6.25838 8.82503 6.30909C8.9098 6.58554 8.94676 6.88478 9.1168 7.12887C9.07924 6.92378 9.02395 6.71258 9.06068 6.50409C9.06915 6.43563 9.14897 6.41491 9.20107 6.4563C9.24319 6.55584 9.25197 6.67876 9.29035 6.78517C9.50872 7.50645 9.99904 8.14082 10.638 8.56653C11.1642 8.915 11.7887 9.12303 12.4261 9.1593C12.4837 9.16415 12.5415 9.16583 12.5991 9.16924" fill="#FFEC2D"/>
<path d="M11.79 10.1256C11.809 10.1256 11.8243 10.1107 11.8243 10.0924C11.8243 10.0741 11.809 10.0593 11.79 10.0593C11.771 10.0593 11.7557 10.0741 11.7557 10.0924C11.7557 10.1107 11.771 10.1256 11.79 10.1256Z" fill="#FFEC2D"/>
<path d="M11.7871 10.1006C11.7948 10.1006 11.8011 10.0946 11.8011 10.0871C11.8011 10.0796 11.7948 10.0736 11.7871 10.0736C11.7794 10.0736 11.7731 10.0796 11.7731 10.0871C11.7731 10.0946 11.7794 10.1006 11.7871 10.1006Z" fill="#FFEC2D" stroke="#FFEC2D" stroke-width="0.1905"/>
<path d="M2.87003 1.02091C2.87003 1.02091 2.73068 0.907847 2.68335 0.964561C2.60723 1.05577 2.91738 1.51011 2.91738 1.67011C2.91738 1.93273 2.73589 2.00415 2.51178 2.04165C2.3614 2.06682 2.11652 2.03112 2.11652 2.03112C2.16263 1.9713 2.19262 1.95368 2.27031 1.9489C2.18381 1.90554 2.09574 1.81142 2.09574 1.66492C2.09574 1.43899 2.19207 1.34587 2.19207 1.09116C2.19207 0.949861 2.07206 0.769989 2.07206 0.769989C2.28418 0.790485 2.38931 0.980115 2.3295 1.13167C2.36325 1.13636 2.39391 1.129 2.42024 1.10492C2.43575 1.14692 2.41125 1.19569 2.37843 1.2377C2.40487 1.25134 2.42428 1.24316 2.46639 1.23476C2.46239 1.27805 2.43553 1.32403 2.36982 1.36731C2.56051 1.3195 2.67784 1.44783 2.67784 1.58217C2.67784 1.68364 2.6042 1.75637 2.53221 1.75637C2.50895 1.75637 2.47477 1.74712 2.4555 1.73322C2.4419 1.76115 2.4489 1.79853 2.4629 1.82646C2.41015 1.81299 2.37665 1.78273 2.40049 1.71976C2.35996 1.71616 2.32773 1.70295 2.3058 1.67776C2.32802 1.65028 2.36173 1.63446 2.40049 1.63575C2.37098 1.57695 2.40387 1.54405 2.45179 1.51737C2.45179 1.51737 2.42131 1.63575 2.49913 1.63575C2.53412 1.63575 2.56601 1.62475 2.56601 1.57495C2.56601 1.53159 2.52675 1.47153 2.436 1.47535C2.34524 1.47917 2.27168 1.53576 2.27168 1.67564C2.27168 1.80466 2.37948 1.86883 2.52152 1.87298C2.6496 1.8768 2.74627 1.80981 2.74627 1.68223C2.74627 1.51244 2.4924 1.12541 2.4924 0.974109C2.4924 0.860569 2.59814 0.797205 2.7016 0.797205C2.83575 0.797205 2.94894 0.925459 2.94894 0.925459L2.87013 1.02087L2.87003 1.02091Z" fill="#FFEC2D"/>
<path d="M2.89932 4.08996C2.89932 4.37374 2.63545 4.51959 2.4281 4.51959C2.14874 4.51959 2 4.35833 2 4.14722C2 4.02755 2.02271 3.95247 2.07985 3.83793L2.72007 2.55479C2.74244 2.51016 2.74966 2.45934 2.74966 2.38486C2.74966 2.26982 2.6341 2.1758 2.51292 2.17291C2.40246 2.17025 2.28211 2.27234 2.28211 2.38868C2.28211 2.52998 2.35803 2.59298 2.43599 2.59298C2.53192 2.59298 2.57014 2.5549 2.57014 2.48987C2.57014 2.44455 2.54748 2.42495 2.5149 2.42495C2.43262 2.42495 2.45572 2.53189 2.45572 2.53189C2.41486 2.52325 2.38128 2.48293 2.40048 2.43258C2.36945 2.42597 2.34144 2.4099 2.32058 2.38676C2.34264 2.36611 2.36794 2.35018 2.40048 2.34476C2.3812 2.28333 2.40696 2.25333 2.46262 2.2407C2.45138 2.26432 2.45101 2.28606 2.45473 2.30657C2.54236 2.2825 2.67667 2.32079 2.67667 2.46695C2.67667 2.61206 2.57236 2.73426 2.3768 2.70372C2.42331 2.7252 2.44698 2.76914 2.45176 2.81828C2.41624 2.80493 2.3768 2.80302 2.3768 2.80302C2.39966 2.84194 2.43142 2.8755 2.43006 2.95194C2.39381 2.93602 2.36012 2.90655 2.31366 2.9252C2.3866 3.06377 2.29699 3.25437 2.06903 3.29946C2.15247 3.20503 2.19331 3.10309 2.19331 3.00159C2.19331 2.67264 2.09863 2.61736 2.09863 2.38867C2.09863 2.29298 2.14957 2.18966 2.25053 2.11943V2.12325C2.1838 2.10599 2.14106 2.07427 2.11648 2.03116C2.26895 1.98941 2.49058 1.99018 2.60957 2.03539C2.74636 2.05069 2.84186 2.15201 2.86999 2.20345C2.89812 2.25488 2.95277 2.44079 2.86999 2.60821L2.21896 3.94099C2.19072 3.9993 2.17358 4.06115 2.17358 4.12811C2.17358 4.29653 2.33337 4.35533 2.42414 4.35533C2.53264 4.35533 2.64312 4.27553 2.64312 4.17585C2.64312 4.1127 2.60759 4.07466 2.55631 4.07466C2.43367 4.07466 2.44112 4.17539 2.46557 4.23886C2.38924 4.20573 2.34487 4.14658 2.35706 4.08421C2.31385 4.07848 2.27272 4.0587 2.23476 4.01737C2.26463 3.98097 2.30105 3.95343 2.35706 3.95245C2.3326 3.85568 2.39969 3.81476 2.46557 3.79207C2.44473 3.86309 2.43106 3.94482 2.55631 3.94482C2.64766 3.94482 2.71955 3.9601 2.76148 4.01738L2.77134 3.63931C2.77662 3.52594 2.61419 3.52918 2.51095 3.56293C2.54991 3.43235 2.62982 3.36175 2.81476 3.37963C2.76986 3.3615 2.72203 3.32072 2.72203 3.24215C2.72206 3.13585 2.81138 3.01808 2.87001 2.98326L2.89933 4.08997L2.89932 4.08996Z" fill="#FFEC2D"/>
<path d="M2.89932 4.94117C2.89932 4.65739 2.63545 4.51154 2.4281 4.51154C2.14874 4.51154 2 4.6728 2 4.88391C2 5.00358 2.02271 5.07866 2.07985 5.1932L2.72007 6.47634C2.74244 6.52097 2.74966 6.57179 2.74966 6.64627C2.74966 6.76131 2.6341 6.85533 2.51292 6.85822C2.40246 6.86088 2.28211 6.75879 2.28211 6.64245C2.28211 6.50115 2.35803 6.43815 2.43599 6.43815C2.53192 6.43815 2.57014 6.47623 2.57014 6.54126C2.57014 6.58657 2.54748 6.60617 2.5149 6.60617C2.43262 6.60617 2.45572 6.49924 2.45572 6.49924C2.41486 6.50788 2.38128 6.5482 2.40048 6.59854C2.36945 6.60516 2.34144 6.62122 2.32058 6.64437C2.34264 6.66502 2.36794 6.68095 2.40048 6.68637C2.3812 6.7478 2.40696 6.7778 2.46262 6.79043C2.45138 6.76681 2.45101 6.74507 2.45473 6.72456C2.54236 6.74862 2.67667 6.71033 2.67667 6.56417C2.67667 6.41906 2.57236 6.29687 2.3768 6.32741C2.42331 6.30593 2.44698 6.26198 2.45176 6.21284C2.41624 6.2262 2.3768 6.2281 2.3768 6.2281C2.39966 6.18918 2.43142 6.15563 2.43006 6.07919C2.39381 6.0951 2.36012 6.12457 2.31366 6.10593C2.3866 5.96735 2.29699 5.77676 2.06903 5.73166C2.15247 5.82609 2.19331 5.92804 2.19331 6.02954C2.19331 6.35849 2.09863 6.41377 2.09863 6.64246C2.09863 6.73815 2.14957 6.84147 2.25053 6.9117V6.90787C2.1838 6.92514 2.14106 6.95686 2.11648 6.99997C2.26895 7.04171 2.49058 7.04094 2.60957 6.99574C2.74636 6.98044 2.84186 6.87912 2.86999 6.82768C2.89812 6.77625 2.95277 6.59034 2.86999 6.42291L2.21896 5.09014C2.19072 5.03183 2.17358 4.96998 2.17358 4.90302C2.17358 4.7346 2.33337 4.6758 2.42414 4.6758C2.53264 4.6758 2.64312 4.7556 2.64312 4.85528C2.64312 4.91843 2.60759 4.95647 2.55631 4.95647C2.43367 4.95647 2.44112 4.85574 2.46557 4.79226C2.38924 4.8254 2.34487 4.88455 2.35706 4.94692C2.31385 4.95265 2.27272 4.97243 2.23476 5.01376C2.26463 5.05016 2.30105 5.0777 2.35706 5.07868C2.3326 5.17544 2.39969 5.21637 2.46557 5.23906C2.44473 5.16804 2.43106 5.08631 2.55631 5.08631C2.64766 5.08631 2.71955 5.07103 2.76148 5.01374L2.77134 5.39181C2.77662 5.50519 2.61419 5.50195 2.51095 5.4682C2.54991 5.59878 2.62982 5.66938 2.81476 5.6515C2.76986 5.66963 2.72203 5.71041 2.72203 5.78898C2.72206 5.89528 2.81138 6.01305 2.87001 6.04787L2.89933 4.94115L2.89932 4.94117Z" fill="#FFEC2D"/>
<path d="M2.87003 1.02091C2.87003 1.02091 3.00938 0.907847 3.0567 0.964561C3.13283 1.05577 2.82267 1.51011 2.82267 1.67011C2.82267 1.93273 3.00417 2.00415 3.22828 2.04165C3.37866 2.06682 3.62354 2.03112 3.62354 2.03112C3.57743 1.9713 3.54744 1.95368 3.46975 1.9489C3.55624 1.90554 3.64432 1.81142 3.64432 1.66492C3.64432 1.43899 3.54799 1.34587 3.54799 1.09116C3.54799 0.949861 3.668 0.769989 3.668 0.769989C3.45587 0.790485 3.35075 0.980115 3.41056 1.13167C3.37681 1.13636 3.34615 1.129 3.31982 1.10492C3.30431 1.14692 3.32881 1.19569 3.36162 1.2377C3.33519 1.25134 3.31578 1.24316 3.27367 1.23476C3.27767 1.27805 3.30452 1.32403 3.37024 1.36731C3.17955 1.3195 3.06221 1.44783 3.06221 1.58217C3.06221 1.68364 3.13586 1.75637 3.20785 1.75637C3.23111 1.75637 3.26529 1.74712 3.28456 1.73322C3.29816 1.76115 3.29116 1.79853 3.27716 1.82646C3.32991 1.81299 3.36341 1.78273 3.33957 1.71976C3.3801 1.71616 3.41233 1.70295 3.43426 1.67776C3.41204 1.65028 3.37833 1.63446 3.33957 1.63575C3.36908 1.57695 3.33619 1.54405 3.28827 1.51737C3.28827 1.51737 3.31875 1.63575 3.24093 1.63575C3.20594 1.63575 3.17405 1.62475 3.17405 1.57495C3.17405 1.53159 3.2133 1.47153 3.30406 1.47535C3.39482 1.47917 3.46837 1.53576 3.46837 1.67564C3.46837 1.80466 3.36058 1.86883 3.21854 1.87298C3.09046 1.8768 2.99379 1.80981 2.99379 1.68223C2.99379 1.51244 3.24765 1.12541 3.24765 0.974109C3.24765 0.860569 3.14192 0.797205 3.03846 0.797205C2.90431 0.797205 2.79112 0.925459 2.79112 0.925459L2.86993 1.02087L2.87003 1.02091Z" fill="#FFEC2D"/>
<path d="M2.84074 4.08996C2.84074 4.37374 3.10461 4.51959 3.31196 4.51959C3.59132 4.51959 3.74006 4.35833 3.74006 4.14722C3.74006 4.02755 3.71735 3.95247 3.66021 3.83793L3.01999 2.55479C2.99762 2.51016 2.99039 2.45934 2.99039 2.38486C2.99039 2.26982 3.10596 2.1758 3.22714 2.17291C3.3376 2.17025 3.45795 2.27234 3.45795 2.38868C3.45795 2.52998 3.38202 2.59298 3.30407 2.59298C3.20814 2.59298 3.16992 2.5549 3.16992 2.48987C3.16992 2.44455 3.19258 2.42495 3.22516 2.42495C3.30744 2.42495 3.28434 2.53189 3.28434 2.53189C3.3252 2.52325 3.35878 2.48293 3.33958 2.43258C3.37061 2.42597 3.39862 2.4099 3.41948 2.38676C3.39742 2.36611 3.37212 2.35018 3.33958 2.34476C3.35885 2.28333 3.3331 2.25333 3.27744 2.2407C3.28867 2.26432 3.28905 2.28606 3.28532 2.30657C3.1977 2.2825 3.06339 2.32079 3.06339 2.46695C3.06339 2.61206 3.1677 2.73426 3.36326 2.70372C3.31675 2.7252 3.29308 2.76914 3.2883 2.81828C3.32382 2.80493 3.36326 2.80302 3.36326 2.80302C3.3404 2.84194 3.30864 2.8755 3.31 2.95194C3.34625 2.93602 3.37994 2.90655 3.42639 2.9252C3.35346 3.06377 3.44307 3.25437 3.67102 3.29946C3.58759 3.20503 3.54674 3.10309 3.54674 3.00159C3.54674 2.67264 3.64143 2.61736 3.64143 2.38867C3.64143 2.29298 3.59049 2.18966 3.48953 2.11943V2.12325C3.55626 2.10599 3.599 2.07427 3.62358 2.03116C3.47111 1.98941 3.24948 1.99018 3.13049 2.03539C2.9937 2.05069 2.8982 2.15201 2.87007 2.20345C2.84194 2.25488 2.78729 2.44079 2.87007 2.60821L3.52109 3.94099C3.54934 3.9993 3.56648 4.06115 3.56648 4.12811C3.56648 4.29653 3.40669 4.35533 3.31592 4.35533C3.20742 4.35533 3.09694 4.27553 3.09694 4.17585C3.09694 4.1127 3.13247 4.07466 3.18375 4.07466C3.30639 4.07466 3.29894 4.17539 3.27449 4.23886C3.35082 4.20573 3.39519 4.14658 3.383 4.08421C3.42621 4.07848 3.46734 4.0587 3.5053 4.01737C3.47543 3.98097 3.43901 3.95343 3.383 3.95245C3.40746 3.85568 3.34037 3.81476 3.27449 3.79207C3.29533 3.86309 3.309 3.94482 3.18375 3.94482C3.0924 3.94482 3.02051 3.9601 2.97858 4.01738L2.96872 3.63931C2.96344 3.52594 3.12587 3.52918 3.22911 3.56293C3.19015 3.43235 3.11024 3.36175 2.9253 3.37963C2.9702 3.3615 3.01803 3.32072 3.01803 3.24215C3.018 3.13585 2.92868 3.01808 2.87004 2.98326L2.84073 4.08997L2.84074 4.08996Z" fill="#FFEC2D"/>
<path d="M2.84074 4.94117C2.84074 4.65739 3.10461 4.51154 3.31196 4.51154C3.59132 4.51154 3.74006 4.6728 3.74006 4.88391C3.74006 5.00358 3.71735 5.07866 3.66021 5.1932L3.01999 6.47634C2.99762 6.52097 2.99039 6.57179 2.99039 6.64627C2.99039 6.76131 3.10596 6.85533 3.22714 6.85822C3.3376 6.86088 3.45795 6.75879 3.45795 6.64245C3.45795 6.50115 3.38202 6.43815 3.30407 6.43815C3.20814 6.43815 3.16992 6.47623 3.16992 6.54126C3.16992 6.58657 3.19258 6.60617 3.22516 6.60617C3.30744 6.60617 3.28434 6.49924 3.28434 6.49924C3.3252 6.50788 3.35878 6.5482 3.33958 6.59854C3.37061 6.60516 3.39862 6.62122 3.41948 6.64437C3.39742 6.66502 3.37212 6.68095 3.33958 6.68637C3.35885 6.7478 3.3331 6.7778 3.27744 6.79043C3.28867 6.76681 3.28905 6.74507 3.28532 6.72456C3.1977 6.74862 3.06339 6.71033 3.06339 6.56417C3.06339 6.41906 3.1677 6.29687 3.36326 6.32741C3.31675 6.30593 3.29308 6.26198 3.2883 6.21284C3.32382 6.2262 3.36326 6.2281 3.36326 6.2281C3.3404 6.18918 3.30864 6.15563 3.31 6.07919C3.34625 6.0951 3.37994 6.12457 3.42639 6.10593C3.35346 5.96735 3.44307 5.77676 3.67102 5.73166C3.58759 5.82609 3.54674 5.92804 3.54674 6.02954C3.54674 6.35849 3.64143 6.41377 3.64143 6.64246C3.64143 6.73815 3.59049 6.84147 3.48953 6.9117V6.90787C3.55626 6.92514 3.599 6.95686 3.62358 6.99997C3.47111 7.04171 3.24948 7.04094 3.13049 6.99574C2.9937 6.98044 2.8982 6.87912 2.87007 6.82768C2.84194 6.77625 2.78729 6.59034 2.87007 6.42291L3.52109 5.09014C3.54934 5.03183 3.56648 4.96998 3.56648 4.90302C3.56648 4.7346 3.40669 4.6758 3.31592 4.6758C3.20742 4.6758 3.09694 4.7556 3.09694 4.85528C3.09694 4.91843 3.13247 4.95647 3.18375 4.95647C3.30639 4.95647 3.29894 4.85574 3.27449 4.79226C3.35082 4.8254 3.39519 4.88455 3.383 4.94692C3.42621 4.95265 3.46734 4.97243 3.5053 5.01376C3.47543 5.05016 3.43901 5.0777 3.383 5.07868C3.40746 5.17544 3.34037 5.21637 3.27449 5.23906C3.29533 5.16804 3.309 5.08631 3.18375 5.08631C3.0924 5.08631 3.02051 5.07103 2.97858 5.01374L2.96872 5.39181C2.96344 5.50519 3.12587 5.50195 3.22911 5.4682C3.19015 5.59878 3.11024 5.66938 2.9253 5.6515C2.9702 5.66963 3.01803 5.71041 3.01803 5.78898C3.018 5.89528 2.92868 6.01305 2.87004 6.04787L2.84073 4.94115L2.84074 4.94117Z" fill="#FFEC2D"/>
<path d="M2.87003 12.9791C2.87003 12.9791 2.73068 13.0922 2.68335 13.0354C2.60723 12.9442 2.91738 12.4899 2.91738 12.3299C2.91738 12.0673 2.73589 11.9959 2.51178 11.9583C2.3614 11.9332 2.11652 11.9689 2.11652 11.9689C2.16263 12.0287 2.19262 12.0463 2.27031 12.0511C2.18381 12.0945 2.09574 12.1886 2.09574 12.3351C2.09574 12.561 2.19207 12.6541 2.19207 12.9088C2.19207 13.0501 2.07206 13.23 2.07206 13.23C2.28418 13.2095 2.38931 13.0199 2.3295 12.8683C2.36325 12.8636 2.39391 12.871 2.42024 12.8951C2.43575 12.8531 2.41125 12.8043 2.37843 12.7623C2.40487 12.7487 2.42428 12.7568 2.46639 12.7652C2.46239 12.722 2.43553 12.676 2.36982 12.6327C2.56051 12.6805 2.67784 12.5522 2.67784 12.4178C2.67784 12.3164 2.6042 12.2436 2.53221 12.2436C2.50895 12.2436 2.47477 12.2529 2.4555 12.2668C2.4419 12.2389 2.4489 12.2015 2.4629 12.1735C2.41015 12.187 2.37665 12.2173 2.40049 12.2802C2.35996 12.2838 2.32773 12.2971 2.3058 12.3222C2.32802 12.3497 2.36173 12.3655 2.40049 12.3643C2.37098 12.4231 2.40387 12.456 2.45179 12.4826C2.45179 12.4826 2.42131 12.3643 2.49913 12.3643C2.53412 12.3643 2.56601 12.3753 2.56601 12.4251C2.56601 12.4684 2.52675 12.5285 2.436 12.5246C2.34524 12.5208 2.27168 12.4642 2.27168 12.3244C2.27168 12.1953 2.37948 12.1312 2.52152 12.127C2.6496 12.1232 2.74627 12.1902 2.74627 12.3178C2.74627 12.4876 2.4924 12.8746 2.4924 13.0259C2.4924 13.1394 2.59814 13.2028 2.7016 13.2028C2.83575 13.2028 2.94894 13.0745 2.94894 13.0745L2.87013 12.9791L2.87003 12.9791Z" fill="#FFEC2D"/>
<path d="M2.89932 9.91004C2.89932 9.62626 2.63545 9.48041 2.4281 9.48041C2.14874 9.48041 2 9.64167 2 9.85278C2 9.97245 2.02271 10.0475 2.07985 10.1621L2.72007 11.4452C2.74244 11.4898 2.74966 11.5407 2.74966 11.6151C2.74966 11.7302 2.6341 11.8242 2.51292 11.8271C2.40246 11.8297 2.28211 11.7277 2.28211 11.6113C2.28211 11.47 2.35803 11.407 2.43599 11.407C2.53192 11.407 2.57014 11.4451 2.57014 11.5101C2.57014 11.5554 2.54748 11.575 2.5149 11.575C2.43262 11.575 2.45572 11.4681 2.45572 11.4681C2.41486 11.4768 2.38128 11.5171 2.40048 11.5674C2.36945 11.574 2.34144 11.5901 2.32058 11.6132C2.34264 11.6339 2.36794 11.6498 2.40048 11.6552C2.3812 11.7167 2.40696 11.7467 2.46262 11.7593C2.45138 11.7357 2.45101 11.7139 2.45473 11.6934C2.54236 11.7175 2.67667 11.6792 2.67667 11.533C2.67667 11.3879 2.57236 11.2657 2.3768 11.2963C2.42331 11.2748 2.44698 11.2309 2.45176 11.1817C2.41624 11.1951 2.3768 11.197 2.3768 11.197C2.39966 11.1581 2.43142 11.1245 2.43006 11.0481C2.39381 11.064 2.36012 11.0934 2.31366 11.0748C2.3866 10.9362 2.29699 10.7456 2.06903 10.7005C2.15247 10.795 2.19331 10.8969 2.19331 10.9984C2.19331 11.3274 2.09863 11.3826 2.09863 11.6113C2.09863 11.707 2.14957 11.8103 2.25053 11.8806V11.8767C2.1838 11.894 2.14106 11.9257 2.11648 11.9688C2.26895 12.0106 2.49058 12.0098 2.60957 11.9646C2.74636 11.9493 2.84186 11.848 2.86999 11.7966C2.89812 11.7451 2.95277 11.5592 2.86999 11.3918L2.21896 10.059C2.19072 10.0007 2.17358 9.93885 2.17358 9.87189C2.17358 9.70347 2.33337 9.64467 2.42414 9.64467C2.53264 9.64467 2.64312 9.72447 2.64312 9.82415C2.64312 9.8873 2.60759 9.92534 2.55631 9.92534C2.43367 9.92534 2.44112 9.82461 2.46557 9.76114C2.38924 9.79427 2.34487 9.85342 2.35706 9.91579C2.31385 9.92152 2.27272 9.9413 2.23476 9.98263C2.26463 10.019 2.30105 10.0466 2.35706 10.0475C2.3326 10.1443 2.39969 10.1852 2.46557 10.2079C2.44473 10.1369 2.43106 10.0552 2.55631 10.0552C2.64766 10.0552 2.71955 10.0399 2.76148 9.98262L2.77134 10.3607C2.77662 10.4741 2.61419 10.4708 2.51095 10.4371C2.54991 10.5676 2.62982 10.6383 2.81476 10.6204C2.76986 10.6385 2.72203 10.6793 2.72203 10.7579C2.72206 10.8642 2.81138 10.9819 2.87001 11.0167L2.89933 9.91003L2.89932 9.91004Z" fill="#FFEC2D"/>
<path d="M2.89932 9.05883C2.89932 9.34261 2.63545 9.48846 2.4281 9.48846C2.14874 9.48846 2 9.3272 2 9.11609C2 8.99642 2.02271 8.92134 2.07985 8.8068L2.72007 7.52366C2.74244 7.47903 2.74966 7.42821 2.74966 7.35373C2.74966 7.23869 2.6341 7.14467 2.51292 7.14178C2.40246 7.13912 2.28211 7.24121 2.28211 7.35755C2.28211 7.49885 2.35803 7.56185 2.43599 7.56185C2.53192 7.56185 2.57014 7.52377 2.57014 7.45874C2.57014 7.41343 2.54748 7.39383 2.5149 7.39383C2.43262 7.39383 2.45572 7.50076 2.45572 7.50076C2.41486 7.49212 2.38128 7.4518 2.40048 7.40146C2.36945 7.39484 2.34144 7.37878 2.32058 7.35563C2.34264 7.33498 2.36794 7.31905 2.40048 7.31363C2.3812 7.2522 2.40696 7.2222 2.46262 7.20957C2.45138 7.23319 2.45101 7.25493 2.45473 7.27544C2.54236 7.25138 2.67667 7.28967 2.67667 7.43583C2.67667 7.58094 2.57236 7.70313 2.3768 7.67259C2.42331 7.69407 2.44698 7.73802 2.45176 7.78716C2.41624 7.7738 2.3768 7.7719 2.3768 7.7719C2.39966 7.81082 2.43142 7.84437 2.43006 7.92081C2.39381 7.9049 2.36012 7.87543 2.31366 7.89407C2.3866 8.03265 2.29699 8.22324 2.06903 8.26834C2.15247 8.17391 2.19331 8.07196 2.19331 7.97046C2.19331 7.64151 2.09863 7.58623 2.09863 7.35754C2.09863 7.26185 2.14957 7.15853 2.25053 7.0883V7.09213C2.1838 7.07486 2.14106 7.04314 2.11648 7.00003C2.26895 6.95829 2.49058 6.95906 2.60957 7.00426C2.74636 7.01956 2.84186 7.12088 2.86999 7.17232C2.89812 7.22375 2.95277 7.40966 2.86999 7.57709L2.21896 8.90986C2.19072 8.96817 2.17358 9.03002 2.17358 9.09698C2.17358 9.2654 2.33337 9.3242 2.42414 9.3242C2.53264 9.3242 2.64312 9.2444 2.64312 9.14472C2.64312 9.08157 2.60759 9.04353 2.55631 9.04353C2.43367 9.04353 2.44112 9.14426 2.46557 9.20774C2.38924 9.1746 2.34487 9.11545 2.35706 9.05308C2.31385 9.04735 2.27272 9.02757 2.23476 8.98624C2.26463 8.94984 2.30105 8.9223 2.35706 8.92132C2.3326 8.82456 2.39969 8.78363 2.46557 8.76094C2.44473 8.83196 2.43106 8.91369 2.55631 8.91369C2.64766 8.91369 2.71955 8.92897 2.76148 8.98626L2.77134 8.60819C2.77662 8.49481 2.61419 8.49805 2.51095 8.5318C2.54991 8.40122 2.62982 8.33062 2.81476 8.3485C2.76986 8.33037 2.72203 8.28959 2.72203 8.21102C2.72206 8.10472 2.81138 7.98695 2.87001 7.95213L2.89933 9.05885L2.89932 9.05883Z" fill="#FFEC2D"/>
<path d="M2.87003 12.9791C2.87003 12.9791 3.00938 13.0922 3.0567 13.0354C3.13283 12.9442 2.82267 12.4899 2.82267 12.3299C2.82267 12.0673 3.00417 11.9959 3.22828 11.9583C3.37866 11.9332 3.62354 11.9689 3.62354 11.9689C3.57743 12.0287 3.54744 12.0463 3.46975 12.0511C3.55624 12.0945 3.64432 12.1886 3.64432 12.3351C3.64432 12.561 3.54799 12.6541 3.54799 12.9088C3.54799 13.0501 3.668 13.23 3.668 13.23C3.45587 13.2095 3.35075 13.0199 3.41056 12.8683C3.37681 12.8636 3.34615 12.871 3.31982 12.8951C3.30431 12.8531 3.32881 12.8043 3.36162 12.7623C3.33519 12.7487 3.31578 12.7568 3.27367 12.7652C3.27767 12.722 3.30452 12.676 3.37024 12.6327C3.17955 12.6805 3.06221 12.5522 3.06221 12.4178C3.06221 12.3164 3.13586 12.2436 3.20785 12.2436C3.23111 12.2436 3.26529 12.2529 3.28456 12.2668C3.29816 12.2389 3.29116 12.2015 3.27716 12.1735C3.32991 12.187 3.36341 12.2173 3.33957 12.2802C3.3801 12.2838 3.41233 12.2971 3.43426 12.3222C3.41204 12.3497 3.37833 12.3655 3.33957 12.3643C3.36908 12.4231 3.33619 12.456 3.28827 12.4826C3.28827 12.4826 3.31875 12.3643 3.24093 12.3643C3.20594 12.3643 3.17405 12.3753 3.17405 12.4251C3.17405 12.4684 3.2133 12.5285 3.30406 12.5246C3.39482 12.5208 3.46837 12.4642 3.46837 12.3244C3.46837 12.1953 3.36058 12.1312 3.21854 12.127C3.09046 12.1232 2.99379 12.1902 2.99379 12.3178C2.99379 12.4876 3.24765 12.8746 3.24765 13.0259C3.24765 13.1394 3.14192 13.2028 3.03846 13.2028C2.90431 13.2028 2.79112 13.0745 2.79112 13.0745L2.86993 12.9791L2.87003 12.9791Z" fill="#FFEC2D"/>
<path d="M2.84074 9.91004C2.84074 9.62626 3.10461 9.48041 3.31196 9.48041C3.59132 9.48041 3.74006 9.64167 3.74006 9.85278C3.74006 9.97245 3.71735 10.0475 3.66021 10.1621L3.01999 11.4452C2.99762 11.4898 2.99039 11.5407 2.99039 11.6151C2.99039 11.7302 3.10596 11.8242 3.22714 11.8271C3.3376 11.8297 3.45795 11.7277 3.45795 11.6113C3.45795 11.47 3.38202 11.407 3.30407 11.407C3.20814 11.407 3.16992 11.4451 3.16992 11.5101C3.16992 11.5554 3.19258 11.575 3.22516 11.575C3.30744 11.575 3.28434 11.4681 3.28434 11.4681C3.3252 11.4768 3.35878 11.5171 3.33958 11.5674C3.37061 11.574 3.39862 11.5901 3.41948 11.6132C3.39742 11.6339 3.37212 11.6498 3.33958 11.6552C3.35885 11.7167 3.3331 11.7467 3.27744 11.7593C3.28867 11.7357 3.28905 11.7139 3.28532 11.6934C3.1977 11.7175 3.06339 11.6792 3.06339 11.533C3.06339 11.3879 3.1677 11.2657 3.36326 11.2963C3.31675 11.2748 3.29308 11.2309 3.2883 11.1817C3.32382 11.1951 3.36326 11.197 3.36326 11.197C3.3404 11.1581 3.30864 11.1245 3.31 11.0481C3.34625 11.064 3.37994 11.0934 3.42639 11.0748C3.35346 10.9362 3.44307 10.7456 3.67102 10.7005C3.58759 10.795 3.54674 10.8969 3.54674 10.9984C3.54674 11.3274 3.64143 11.3826 3.64143 11.6113C3.64143 11.707 3.59049 11.8103 3.48953 11.8806V11.8767C3.55626 11.894 3.599 11.9257 3.62358 11.9688C3.47111 12.0106 3.24948 12.0098 3.13049 11.9646C2.9937 11.9493 2.8982 11.848 2.87007 11.7966C2.84194 11.7451 2.78729 11.5592 2.87007 11.3918L3.52109 10.059C3.54934 10.0007 3.56648 9.93885 3.56648 9.87189C3.56648 9.70347 3.40669 9.64467 3.31592 9.64467C3.20742 9.64467 3.09694 9.72447 3.09694 9.82415C3.09694 9.8873 3.13247 9.92534 3.18375 9.92534C3.30639 9.92534 3.29894 9.82461 3.27449 9.76114C3.35082 9.79427 3.39519 9.85342 3.383 9.91579C3.42621 9.92152 3.46734 9.9413 3.5053 9.98263C3.47543 10.019 3.43901 10.0466 3.383 10.0475C3.40746 10.1443 3.34037 10.1852 3.27449 10.2079C3.29533 10.1369 3.309 10.0552 3.18375 10.0552C3.0924 10.0552 3.02051 10.0399 2.97858 9.98262L2.96872 10.3607C2.96344 10.4741 3.12587 10.4708 3.22911 10.4371C3.19015 10.5676 3.11024 10.6383 2.9253 10.6204C2.9702 10.6385 3.01803 10.6793 3.01803 10.7579C3.018 10.8642 2.92868 10.9819 2.87004 11.0167L2.84073 9.91003L2.84074 9.91004Z" fill="#FFEC2D"/>
<path d="M2.84074 9.05883C2.84074 9.34261 3.10461 9.48846 3.31196 9.48846C3.59132 9.48846 3.74006 9.3272 3.74006 9.11609C3.74006 8.99642 3.71735 8.92134 3.66021 8.8068L3.01999 7.52366C2.99762 7.47903 2.99039 7.42821 2.99039 7.35373C2.99039 7.23869 3.10596 7.14467 3.22714 7.14178C3.3376 7.13912 3.45795 7.24121 3.45795 7.35755C3.45795 7.49885 3.38202 7.56185 3.30407 7.56185C3.20814 7.56185 3.16992 7.52377 3.16992 7.45874C3.16992 7.41343 3.19258 7.39383 3.22516 7.39383C3.30744 7.39383 3.28434 7.50076 3.28434 7.50076C3.3252 7.49212 3.35878 7.4518 3.33958 7.40146C3.37061 7.39484 3.39862 7.37878 3.41948 7.35563C3.39742 7.33498 3.37212 7.31905 3.33958 7.31363C3.35885 7.2522 3.3331 7.2222 3.27744 7.20957C3.28867 7.23319 3.28905 7.25493 3.28532 7.27544C3.1977 7.25138 3.06339 7.28967 3.06339 7.43583C3.06339 7.58094 3.1677 7.70313 3.36326 7.67259C3.31675 7.69407 3.29308 7.73802 3.2883 7.78716C3.32382 7.7738 3.36326 7.7719 3.36326 7.7719C3.3404 7.81082 3.30864 7.84437 3.31 7.92081C3.34625 7.9049 3.37994 7.87543 3.42639 7.89407C3.35346 8.03265 3.44307 8.22324 3.67102 8.26834C3.58759 8.17391 3.54674 8.07196 3.54674 7.97046C3.54674 7.64151 3.64143 7.58623 3.64143 7.35754C3.64143 7.26185 3.59049 7.15853 3.48953 7.0883V7.09213C3.55626 7.07486 3.599 7.04314 3.62358 7.00003C3.47111 6.95829 3.24948 6.95906 3.13049 7.00426C2.9937 7.01956 2.8982 7.12088 2.87007 7.17232C2.84194 7.22375 2.78729 7.40966 2.87007 7.57709L3.52109 8.90986C3.54934 8.96817 3.56648 9.03002 3.56648 9.09698C3.56648 9.2654 3.40669 9.3242 3.31592 9.3242C3.20742 9.3242 3.09694 9.2444 3.09694 9.14472C3.09694 9.08157 3.13247 9.04353 3.18375 9.04353C3.30639 9.04353 3.29894 9.14426 3.27449 9.20774C3.35082 9.1746 3.39519 9.11545 3.383 9.05308C3.42621 9.04735 3.46734 9.02757 3.5053 8.98624C3.47543 8.94984 3.43901 8.9223 3.383 8.92132C3.40746 8.82456 3.34037 8.78363 3.27449 8.76094C3.29533 8.83196 3.309 8.91369 3.18375 8.91369C3.0924 8.91369 3.02051 8.92897 2.97858 8.98626L2.96872 8.60819C2.96344 8.49481 3.12587 8.49805 3.22911 8.5318C3.19015 8.40122 3.11024 8.33062 2.9253 8.3485C2.9702 8.33037 3.01803 8.28959 3.01803 8.21102C3.018 8.10472 2.92868 7.98695 2.87004 7.95213L2.84073 9.05885L2.84074 9.05883Z" fill="#FFEC2D"/>
</g>
<defs>
<clipPath id="clip0_601_2">
<rect width="23" height="14" fill="white"/>
</clipPath>
</defs>
</svg>
