<svg width="111" height="44" viewBox="0 0 111 44" fill="none" xmlns="http://www.w3.org/2000/svg">
<path d="M53.4296 35.0696L52.1515 38.104C52.1149 38.1393 52.1149 38.2098 52.1149 38.2451L52.0784 38.3157L52.0418 38.2451C52.0418 38.2098 52.0053 38.1393 52.0053 38.104L50.7271 35.0696H49.0837L51.2383 40.2563L50.3253 42.2321H51.9689L55 35.0696H53.4296Z" fill="white"/>
<path d="M41.3047 35.3519C41.0126 35.1402 40.6473 34.9991 40.2091 34.9638C39.4786 34.8933 38.7847 35.1402 38.3099 35.5989V35.0344H36.8125V40.221H38.3099V37.5042C38.3099 36.9044 38.4196 36.728 38.5292 36.5868C38.7118 36.3046 39.0404 36.1634 39.4421 36.1634C39.8439 36.1634 40.2091 36.3399 40.3916 36.6221C40.5013 36.8338 40.5377 37.1161 40.5377 37.2572C40.5377 37.7159 40.5377 40.221 40.5377 40.221H42.0351V37.0808C42.0351 36.2693 41.816 35.7048 41.3047 35.3519Z" fill="white"/>
<path d="M34.0007 35.1049C33.2702 34.8579 32.4667 34.8932 31.7364 35.2108C31.2616 35.4225 30.8234 35.7753 30.5677 36.234C30.3121 36.6221 30.2024 37.1161 30.2024 37.6453C30.2024 38.1746 30.3121 38.6685 30.5677 39.0566C30.8234 39.4447 31.152 39.7976 31.5902 40.0093C32.0286 40.221 32.5398 40.3621 33.0146 40.3621C33.2702 40.3621 33.5259 40.3268 33.7814 40.2563C34.0007 40.1857 34.2198 40.1151 34.4389 40.0093C34.877 39.7623 35.2423 39.4447 35.4614 39.0566C35.7171 38.6685 35.8267 38.1746 35.8267 37.6453C35.8267 36.481 35.1328 35.493 34.0007 35.1049ZM34.4024 37.7159C34.3658 38.1746 34.2198 38.5627 33.9276 38.8096C33.7085 38.9861 33.3797 39.0919 32.978 39.1272C32.5763 39.1272 32.2841 39.0213 32.0286 38.8096C31.7364 38.5627 31.5902 38.1746 31.5537 37.7159C31.5173 37.1866 31.7364 36.7632 32.1381 36.481C32.3572 36.3398 32.6494 36.234 32.9415 36.234C33.2702 36.234 33.5259 36.3398 33.7814 36.481C34.2198 36.728 34.4389 37.1866 34.4024 37.7159Z" fill="white"/>
<path d="M28.4495 35.3519C28.1574 35.1402 27.7921 34.9991 27.3539 34.9638C27.2808 34.9638 27.1713 34.9638 27.0982 34.9638C26.5138 34.9638 26.0026 35.2108 25.5644 35.7047L25.4913 35.8106H25.3451C25.2356 35.6342 25.0896 35.493 24.9434 35.3872C24.6512 35.1755 24.2862 35.0344 23.8478 34.9991C23.1539 34.9285 22.6062 35.1402 22.1314 35.6342V35.1049H20.634V40.2915H22.1314V37.5747V37.5042C22.1314 36.9396 22.2045 36.7985 22.314 36.6221C22.4966 36.3398 22.8253 36.1634 23.1905 36.1987C23.5556 36.1987 23.8844 36.3751 24.0671 36.6574C24.2131 36.8691 24.2131 37.116 24.2131 37.363V40.2563H25.7104V37.4689C25.7104 36.9396 25.7835 36.7632 25.893 36.5868C26.0757 36.3045 26.4043 36.1634 26.7696 36.1634C27.1346 36.1634 27.4268 36.3398 27.6095 36.6221C27.719 36.7985 27.7556 37.0102 27.7556 37.1513C27.7556 37.2219 27.7556 37.2925 27.7556 37.3277V40.221H29.253V37.0455C29.253 36.7632 29.2163 36.481 29.1434 36.234C28.9972 35.8811 28.7782 35.5636 28.4495 35.3519Z" fill="white"/>
<path d="M47.6592 38.6685C47.4401 38.8802 46.9288 39.2683 46.2349 39.3036C45.6506 39.3389 45.2124 39.1625 44.8836 38.8449C44.7376 38.7038 44.628 38.4921 44.5549 38.2804H48.6819V38.2451C48.7183 38.0334 48.7548 37.857 48.7548 37.6453C48.7548 37.4689 48.7183 37.2219 48.6452 36.9044C48.4626 36.3046 48.0975 35.8459 47.6227 35.493C47.0748 35.1049 46.5635 34.9991 46.4175 34.9991C45.3584 34.8227 44.1532 35.2813 43.5324 36.234C43.0941 36.9044 43.1307 37.5748 43.1307 37.7865C43.1307 38.0334 43.1672 38.8097 43.8246 39.5153C44.5916 40.3268 45.6506 40.3621 45.9792 40.3974C47.4401 40.4327 48.4261 39.5506 48.6452 39.3742L47.6592 38.6685ZM45.1028 36.481C45.3219 36.3398 45.5775 36.234 45.9063 36.234C46.2349 36.234 46.4906 36.3398 46.7462 36.481C46.9653 36.6574 47.1479 36.8691 47.2574 37.1161H44.628C44.7011 36.8691 44.8471 36.6221 45.1028 36.481Z" fill="white"/>
<path d="M10.4815 32C7.26773 32 4.71129 34.5051 4.71129 37.5747C4.71129 40.6797 7.30425 43.1495 10.4815 43.1495C13.6588 43.1495 16.2518 40.6444 16.2518 37.5747C16.2518 34.5051 13.6588 32 10.4815 32ZM10.4815 39.6212C9.31289 39.6212 8.32683 38.6685 8.32683 37.5394C8.32683 36.4104 9.31289 35.4578 10.4815 35.4578C11.6502 35.4578 12.6363 36.4104 12.6363 37.5394C12.5997 38.7038 11.6502 39.6212 10.4815 39.6212Z" fill="#8C40F9"/>
<path d="M4.67463 33.5878V41.7029H2.62948L0 33.5878H4.67463Z" fill="#8C40F9"/>
<path d="M57.5179 7.00068V17H54.1729V9.98568H50.9521V17H47.6071V7H57.5179V7.00068Z" fill="white"/>
<path fill-rule="evenodd" clip-rule="evenodd" d="M40.7331 17C43.5404 17 45.625 15.2165 45.625 12.5128C45.625 9.89595 44.087 8.19686 41.5165 8.19686C40.3302 8.19686 39.3513 8.62954 38.614 9.37611C38.79 7.83303 40.0494 6.70651 41.436 6.70651C41.756 6.70651 44.1651 6.70124 44.1651 6.70124L45.5274 4C45.5274 4 42.5028 4.07134 41.0968 4.07134C37.8842 4.12934 35.7143 7.15501 35.7143 10.8299C35.7143 15.1111 37.8307 17 40.7331 17ZM40.7502 10.5895C41.7925 10.5895 42.5151 11.2991 42.5151 12.5125C42.5151 13.6046 41.873 14.5044 40.7502 14.5069C39.6761 14.5069 38.9535 13.6732 38.9535 12.5311C38.9535 11.3174 39.6761 10.5895 40.7502 10.5895V10.5895Z" fill="white"/>
<path d="M33.3221 13.8449C33.3221 13.8449 32.5322 14.2985 31.3524 14.3844C29.996 14.4245 28.7874 13.571 28.7874 12.0545C28.7874 10.5753 29.8539 9.72751 31.3182 9.72751C32.2161 9.72751 33.4039 10.3475 33.4039 10.3475C33.4039 10.3475 34.273 8.75853 34.7232 7.96388C33.8988 7.34134 32.8007 7 31.5235 7C28.3002 7 25.8036 9.09383 25.8036 12.0357C25.8036 15.0152 28.1501 17.0604 31.5235 16.9986C32.4664 16.9636 33.7672 16.6338 34.5601 16.1264L33.3221 13.8449Z" fill="white"/>
<path d="M4 5.224L6.91058 10.419V13.5878L4.0034 18.7726L4 5.224Z" fill="#5B57A2"/>
<path d="M15.1754 8.52859L17.9028 6.85939L23.4844 6.85419L15.1754 11.937V8.52859Z" fill="#D90751"/>
<path d="M15.16 5.1934L15.1754 12.0714L12.2581 10.2814V0L15.1602 5.1934H15.16Z" fill="#FAB718"/>
<path d="M23.4844 6.8542L17.9026 6.8594L15.16 5.1934L12.2581 0L23.4842 6.8542H23.4844Z" fill="#ED6F26"/>
<path d="M15.1754 18.8014V15.4644L12.2581 13.7084L12.2597 24L15.1754 18.8014Z" fill="#63B22F"/>
<path d="M17.896 17.1474L6.91038 10.419L4 5.224L23.4726 17.1406L17.8958 17.1474H17.896Z" fill="#1487C9"/>
<path d="M12.2599 24L15.1752 18.8014L17.8958 17.1474L23.4724 17.1406L12.2599 24Z" fill="#017F36"/>
<path d="M4.0034 18.7726L12.2819 13.7086L9.4987 12.0034L6.91058 13.5878L4.0034 18.7726Z" fill="#984995"/>
<path d="M77.4535 19.7525C77.4535 19.3012 77.4398 18.8953 77.4623 18.4913C77.4682 18.3765 77.5585 18.2473 77.6468 18.1586C79.0332 16.7528 80.4471 15.373 81.811 13.946C82.8245 12.8853 83.8057 11.7909 84.7408 10.6628C85.2746 10.0197 85.5787 9.23578 85.6671 8.39402C85.7563 7.54358 85.5032 6.81174 84.782 6.30939C84.1374 5.86006 83.4191 5.78775 82.6636 6.0693C81.6285 6.45595 81.133 7.21575 80.9622 8.2571C80.8425 8.98508 80.7366 9.7362 80.4658 10.416C79.9693 11.6656 78.939 12.3849 77.6566 12.7841C76.6234 13.1061 75.5578 13.0589 74.4991 13.0705C74.1861 13.0733 74.1076 13.1572 74.1086 13.4581C74.1184 15.4877 74.1027 17.5174 74.1106 19.5471C74.1116 19.8797 74.0262 20.0109 73.6602 19.9993C72.8183 19.9733 71.9745 19.9906 71.0287 19.9906C70.9737 14.5582 71.0169 9.14321 71.0051 3.6684C73.5091 3.77736 76.0131 3.3936 78.3866 4.19486C77.9186 5.13401 77.4731 6.02687 77.0198 6.93709C76.2025 6.59769 75.2684 6.68929 74.3461 6.67C74.1469 6.66615 74.1047 6.75582 74.1057 6.93612C74.1096 7.89648 74.1057 8.8578 74.0949 9.81816C74.0929 10.0409 74.1351 10.1315 74.404 10.1122C74.9642 10.0727 75.5284 10.0891 76.0906 10.0737C77.1847 10.0428 77.7449 9.51443 77.844 8.44801C77.9382 7.44041 78.0893 6.43763 78.677 5.57562C79.7622 3.98081 81.2782 3.09952 83.2514 3.00888C84.3572 2.95778 85.407 3.12073 86.3863 3.66744C87.9336 4.53041 88.9776 6.5138 88.8088 8.24167C88.644 9.93869 87.9002 11.3937 86.8327 12.679C85.7573 13.9739 84.5819 15.1898 83.4496 16.4394C83.3318 16.5696 83.2101 16.6949 83.0904 16.8232C83.1101 16.8579 83.1307 16.8926 83.1503 16.9273C83.2916 16.9273 83.4319 16.9273 83.5732 16.9273C85.5562 16.9264 87.5382 16.9312 89.5212 16.9177C89.8332 16.9157 89.9264 17.0151 89.9186 17.3111C89.9009 17.9957 89.9019 18.6803 89.9156 19.3648C89.9225 19.6936 89.8567 19.7949 89.4633 19.7804C88.1367 19.7332 86.8062 19.7582 85.4777 19.7573C82.957 19.7554 80.4353 19.7544 77.9147 19.7525C77.7812 19.7525 77.6478 19.7525 77.4535 19.7525Z" fill="white"/>
<path d="M98.3157 7.56579C98.0566 5.82442 97.1471 4.52948 95.3682 4.0387C94.4978 3.79861 93.5657 3.7234 92.6571 3.68098C91.412 3.62216 90.1619 3.66458 88.9129 3.66362C88.4488 3.66362 88.2898 3.91239 88.488 4.33857C88.5332 4.43499 88.6087 4.51791 88.6696 4.60759C89.6272 6.02402 89.9696 7.56097 89.585 9.23196C89.0768 11.441 87.8228 13.2286 86.2666 14.8427C85.9291 15.1927 85.6102 15.5611 85.2334 15.9757C85.4238 15.9969 85.5268 16.0191 85.6298 16.0191C87.2557 16.0239 88.8805 16.0306 90.5063 16.022C90.7654 16.021 90.8772 16.0644 90.8733 16.3508C90.8615 17.3468 90.8743 18.3438 90.8812 19.3408C90.8812 19.4681 90.9008 19.5953 90.9126 19.7303H91.5523V13.1197C92.3853 13.0811 93.131 13.0637 93.8738 13.0097C95.5457 12.8892 96.9057 12.2085 97.7868 10.7699C98.3922 9.78156 98.4805 8.67657 98.3147 7.56579H98.3157ZM95.3034 8.61486C95.2092 9.44216 94.6529 9.9609 93.7472 10.0535C93.5166 10.0766 93.2841 10.0814 93.0525 10.0834C92.5894 10.0882 92.1273 10.0843 91.6072 10.0843C91.6072 9.01115 91.6023 7.9833 91.6161 6.95545C91.6171 6.87156 91.7446 6.71632 91.8074 6.71825C92.5727 6.74911 93.3547 6.71825 94.0965 6.87445C94.9894 7.06151 95.4005 7.75767 95.3034 8.61293V8.61486Z" fill="white"/>
<path d="M67.5496 36.9436V38.1302H64.7821V42.2631H63V38.7184L64.7714 36.9436H67.5496Z" fill="url(#paint0_linear_712_10)"/>
<path d="M72.3562 33L71.3387 34.1782H65.4697C65.0949 34.1782 64.7928 34.4145 64.7928 34.7078V35.5643L63 37.1581V34.7246C63 33.7726 63.9875 33 65.2041 33H72.3562Z" fill="url(#paint1_linear_712_10)"/>
<path d="M76.0446 42.2632H74.0912L70.5633 38.3212V42.2632H69.0682V38.3447L73.892 33H75.8155L71.8314 37.4363L76.0446 42.2632Z" fill="url(#paint2_linear_712_10)"/>
<path d="M77.4051 40.716L75.6055 35.1725H76.5726L77.4135 37.9788C77.6238 38.6697 77.813 39.3606 77.9391 39.8968H77.9601C78.0779 39.3441 78.2965 38.6861 78.5404 37.9722L79.4864 35.1758H80.445L81.307 37.9887C81.5088 38.6467 81.698 39.3046 81.8031 39.8902H81.8242C81.9713 39.2816 82.1731 38.6631 82.3918 37.9722L83.3294 35.1758H84.267L82.2572 40.7193H81.2986L80.403 37.8308C80.1802 37.1234 80.033 36.5806 79.9405 36.0213H79.9153C79.7765 36.6333 79.5915 37.2353 79.3687 37.8308L78.3596 40.7193H77.4051V40.716Z" fill="white"/>
<path d="M85.6882 38.9724L84.9524 40.716H84.0063L86.4156 35.1725H87.5214L89.939 40.716H88.9552L88.1983 38.9724H85.6882V38.9724ZM88.0091 38.4131L87.3154 36.8175C87.1556 36.4556 87.0505 36.1266 86.9454 35.8042H86.9243C86.8192 36.1332 86.7015 36.472 86.567 36.8076L85.8732 38.4131H88.0091V38.4131Z" fill="white"/>
<path d="M90.9734 35.1725H91.89V40.1172H94.9173V40.7193H90.9734V35.1725Z" fill="white"/>
<path d="M95.9348 35.1725H96.8514V40.1172H99.8787V40.7193H95.9348V35.1725Z" fill="white"/>
<path d="M104.567 38.117H101.813V40.1172H104.882V40.7193H100.896V35.1725H104.722V35.7746H101.809V37.5281H104.563L104.567 38.117Z" fill="white"/>
<path d="M107.582 35.7812H105.425V35.1725H110.672V35.7812H108.507V40.716H107.582V35.7812Z" fill="white"/>
<defs>
<linearGradient id="paint0_linear_712_10" x1="60.8064" y1="36.4735" x2="69.8844" y2="46.8575" gradientUnits="userSpaceOnUse">
<stop stop-color="#1576FF"/>
<stop offset="1" stop-color="#601CFF"/>
</linearGradient>
<linearGradient id="paint1_linear_712_10" x1="64.7482" y1="33.0276" x2="73.826" y2="43.4116" gradientUnits="userSpaceOnUse">
<stop stop-color="#1576FF"/>
<stop offset="1" stop-color="#601CFF"/>
</linearGradient>
<linearGradient id="paint2_linear_712_10" x1="65.2459" y1="32.5924" x2="74.3239" y2="42.9765" gradientUnits="userSpaceOnUse">
<stop stop-color="#1576FF"/>
<stop offset="1" stop-color="#601CFF"/>
</linearGradient>
</defs>
</svg>
